<svg width="65" height="65" viewBox="0 0 65 65" fill="none" xmlns="http://www.w3.org/2000/svg">
<g clip-path="url(#clip0)">
<path d="M19.0831 9.40275C19.0831 9.42335 19.0856 9.44343 19.0861 9.46404H18.1704C12.818 9.46404 8.47876 13.8028 8.47876 19.1557C8.47876 24.508 12.818 28.8473 18.1704 28.8473H19.0861C19.0856 28.8679 19.0831 28.8875 19.0831 28.9081C19.0831 30.5413 20.4072 31.865 22.0399 31.865C23.6726 31.865 24.9963 30.5413 24.9963 28.9081C24.9963 28.8009 24.9901 28.6954 24.9788 28.5908C29.2666 27.5906 32.4614 23.7478 32.4614 19.1557C32.4614 14.5635 29.266 10.7197 24.9788 9.72001C24.9901 9.61597 24.9963 9.50987 24.9963 9.40275C24.9963 7.77005 23.6726 6.44586 22.0399 6.44586C20.4072 6.44586 19.0831 7.76953 19.0831 9.40275Z" fill="#F9CFCF"/>
<path d="M32.4614 19.1557C32.4614 20.9022 31.9983 22.5401 31.1892 23.9554H35.0145C35.6129 23.9554 36.0981 23.4702 36.0981 22.8717V15.4396C36.0981 14.8411 35.6129 14.356 35.0145 14.356H31.1892C31.9983 15.7708 32.4614 17.4086 32.4614 19.1557Z" fill="#F9CFCF"/>
<path d="M22.0399 32.3924C20.2764 32.3924 18.8152 31.0764 18.5866 29.3747H18.1704C12.5353 29.3747 7.95135 24.7908 7.95135 19.1557C7.95135 13.5211 12.5353 8.93663 18.1704 8.93663H18.5866C18.8152 7.23492 20.2764 5.91846 22.0399 5.91846C23.9317 5.91846 25.4758 7.43424 25.5227 9.31467C29.9408 10.542 32.9893 14.528 32.9893 19.1557C32.9893 23.7834 29.9408 27.7693 25.5227 28.9967C25.4758 30.8771 23.9312 32.3924 22.0399 32.3924ZM18.1704 9.99145C13.1173 9.99145 9.00617 14.1025 9.00617 19.1557C9.00617 24.2088 13.1173 28.3199 18.1704 28.3199H19.0862C19.2273 28.3199 19.3627 28.376 19.4616 28.4765C19.5605 28.5769 19.6156 28.7129 19.6136 28.854C19.613 28.8741 19.612 28.8942 19.6105 28.9148C19.6105 30.2477 20.7003 31.3376 22.0399 31.3376C23.3791 31.3376 24.4689 30.2477 24.4689 28.9081C24.4689 28.8195 24.4638 28.7324 24.4545 28.6469C24.4262 28.3817 24.5997 28.1376 24.8593 28.0778C29.025 27.1054 31.934 23.4367 31.934 19.1557C31.934 14.8741 29.025 11.2049 24.8593 10.2335C24.5997 10.1727 24.4262 9.92913 24.4545 9.66439C24.4638 9.57838 24.4689 9.49082 24.4689 9.40275C24.4689 8.06311 23.3791 6.97327 22.0399 6.97327C20.7034 6.97327 19.6151 8.05848 19.6105 9.39451C19.612 9.41923 19.613 9.43777 19.6136 9.45734C19.6156 9.59847 19.5605 9.73392 19.4616 9.83436C19.3622 9.93531 19.2273 9.99145 19.0862 9.99145H18.1704Z" fill="#3762CC"/>
<path d="M22.0399 32.3924C20.2764 32.3924 18.8152 31.0764 18.5866 29.3747H18.1704C12.5353 29.3747 7.95135 24.7908 7.95135 19.1557C7.95135 13.5211 12.5353 8.93663 18.1704 8.93663H18.5866C18.8152 7.23492 20.2764 5.91846 22.0399 5.91846C23.9317 5.91846 25.4758 7.43424 25.5227 9.31467C29.9408 10.542 32.9893 14.528 32.9893 19.1557C32.9893 23.7834 29.9408 27.7693 25.5227 28.9967C25.4758 30.8771 23.9312 32.3924 22.0399 32.3924ZM18.1704 9.99145C13.1173 9.99145 9.00617 14.1025 9.00617 19.1557C9.00617 24.2088 13.1173 28.3199 18.1704 28.3199H19.0862C19.2273 28.3199 19.3627 28.376 19.4616 28.4765C19.5605 28.5769 19.6156 28.7129 19.6136 28.854C19.613 28.8741 19.612 28.8942 19.6105 28.9148C19.6105 30.2477 20.7003 31.3376 22.0399 31.3376C23.3791 31.3376 24.4689 30.2477 24.4689 28.9081C24.4689 28.8195 24.4638 28.7324 24.4545 28.6469C24.4262 28.3817 24.5997 28.1376 24.8593 28.0778C29.025 27.1054 31.934 23.4367 31.934 19.1557C31.934 14.8741 29.025 11.2049 24.8593 10.2335C24.5997 10.1727 24.4262 9.92913 24.4545 9.66439C24.4638 9.57838 24.4689 9.49082 24.4689 9.40275C24.4689 8.06311 23.3791 6.97327 22.0399 6.97327C20.7034 6.97327 19.6151 8.05848 19.6105 9.39451C19.612 9.41923 19.613 9.43777 19.6136 9.45734C19.6156 9.59847 19.5605 9.73392 19.4616 9.83436C19.3622 9.93531 19.2273 9.99145 19.0862 9.99145H18.1704Z" fill="#3762CC"/>
<path d="M63.6639 6.3212H40.1541C37.3085 6.3212 35.0011 8.62861 35.0011 11.4742V26.8365C35.0011 29.6822 37.3085 31.9896 40.1541 31.9896H64.1913V6.84861C64.1913 6.5576 63.9554 6.3212 63.6639 6.3212Z" fill="#6BDDDD"/>
<path d="M19.2777 7.84215H16.1854V6.86201C16.1854 6.48345 15.8903 6.177 15.5261 6.177H11.7601C7.57225 6.177 4.17706 9.7061 4.17706 14.0603V14.3044C4.17706 15.4138 5.02225 16.3152 6.07913 16.3574C5.02225 16.3981 4.17706 17.2989 4.17706 18.4073V23.565C4.17706 28.291 7.86274 32.123 12.4091 32.123H15.523C15.8887 32.123 16.1854 31.815 16.1854 31.4344V30.4687H19.2777C25.2878 30.4687 30.1596 25.4037 30.1596 19.1557C30.1596 12.9071 25.2878 7.84215 19.2777 7.84215Z" fill="#4671C6"/>
<path d="M64.1913 32.517H40.1541C37.0221 32.517 34.4737 29.9685 34.4737 26.8365V24.4823H31.1892C31.0012 24.4823 30.8277 24.3818 30.7329 24.2196C30.6391 24.0568 30.6386 23.8565 30.7313 23.6932C31.5183 22.317 31.9345 20.7482 31.9345 19.1557C31.9345 17.5626 31.5183 15.9933 30.7313 14.6176C30.6381 14.4543 30.6386 14.254 30.7329 14.0912C30.8277 13.9284 31.0017 13.8285 31.1892 13.8285H34.4737V11.4742C34.4737 8.34224 37.0221 5.79379 40.1541 5.79379H63.6639C64.2454 5.79379 64.7187 6.26661 64.7187 6.84861V31.9896C64.7187 32.2806 64.4823 32.517 64.1913 32.517ZM32.0535 23.428H35.0011C35.2921 23.428 35.5285 23.6639 35.5285 23.9554V26.8365C35.5285 29.3871 37.6036 31.4622 40.1541 31.4622H63.6639V6.84861H40.1541C37.6036 6.84861 35.5285 8.92373 35.5285 11.4748V14.3559C35.5285 14.6469 35.2921 14.8833 35.0011 14.8833H32.0535C32.6674 16.2168 32.9888 17.677 32.9888 19.1557C32.9888 20.6338 32.6674 22.0945 32.0535 23.428Z" fill="#3762CC"/>
<path d="M15.5292 32.6499H12.4132C7.58101 32.6499 3.64966 28.5738 3.64966 23.5645V18.4073C3.64966 17.5698 4.03182 16.8271 4.63031 16.3564C4.03182 15.8851 3.64966 15.1419 3.64966 14.3044V14.0598C3.64966 9.42231 7.29001 5.64908 11.7642 5.64908H15.5323C16.1869 5.64908 16.7195 6.19297 16.7195 6.86201V7.31474H19.2854C25.5798 7.31474 30.7009 12.6269 30.7009 19.1557C30.7009 25.6844 25.5798 30.9966 19.2854 30.9966H16.7195V31.4344C16.719 32.1045 16.1854 32.6499 15.5292 32.6499ZM11.7637 6.70389C7.87098 6.70389 4.70447 10.0038 4.70447 14.0598V14.3044C4.70447 15.129 5.31738 15.7991 6.10077 15.83C6.38353 15.8413 6.60757 16.0741 6.60706 16.3574C6.60706 16.6407 6.38301 16.873 6.10025 16.8838C5.31738 16.9142 4.70447 17.5832 4.70447 18.4073V23.5645C4.70447 27.9928 8.16198 31.5951 12.4127 31.5951H15.5287C15.6029 31.5951 15.6642 31.523 15.6642 31.4344V30.4692C15.6642 30.1782 15.9 29.9418 16.1916 29.9418H19.2849C24.9978 29.9418 29.6456 25.1034 29.6456 19.1562C29.6456 13.2089 24.9983 8.36955 19.2854 8.36955H16.1916C15.9006 8.36955 15.6642 8.13315 15.6642 7.84215V6.86201C15.6642 6.776 15.6039 6.70338 15.5318 6.70338H11.7637V6.70389Z" fill="#3762CC"/>
<path d="M63.8071 32.0138H36.0497C35.6299 32.0138 35.2277 31.8474 34.9305 31.5508L33.2092 29.829C32.8137 29.4334 32.277 29.2114 31.7176 29.2114H1.95722C1.3747 29.2114 0.902405 29.6837 0.902405 30.2662V58.0314C0.902405 58.6139 1.3747 59.0862 1.95722 59.0862H63.1365C63.719 59.0862 64.1913 58.6139 64.1913 58.0314V32.0138H63.8071Z" fill="#B9BEFC"/>
<path d="M61.801 36.9449H34.0436C33.6238 36.9449 33.2216 36.778 32.9244 36.4813L31.2031 34.76C30.8076 34.3645 30.2709 34.1425 29.711 34.1425H0.902405V54.0758H64.1913V36.9449H61.801Z" fill="#E0EBFC"/>
<path d="M18.2832 51.3584H13.2316C12.6759 51.3584 12.2257 50.9083 12.2257 50.3526V37.3209C12.2257 36.7651 12.6759 36.3145 13.2316 36.3145H18.2832C18.8389 36.3145 19.2891 36.7651 19.2891 37.3209V50.3526C19.2891 50.9083 18.8389 51.3584 18.2832 51.3584Z" fill="#A4C9FF"/>
<path d="M29.8867 51.3584H24.8356C24.2799 51.3584 23.8297 50.9083 23.8297 50.3526V37.3209C23.8297 36.7651 24.2799 36.3145 24.8356 36.3145H29.8867C30.4424 36.3145 30.8931 36.7651 30.8931 37.3209V50.3526C30.8931 50.9083 30.4424 51.3584 29.8867 51.3584Z" fill="#A4C9FF"/>
<path d="M39.9285 51.3585H34.9748C34.3923 51.3585 33.92 50.8862 33.92 50.3037V40.0789C33.92 39.5232 34.3701 39.0725 34.9259 39.0725H39.9775C40.5327 39.0725 40.9833 39.5232 40.9833 40.0789V50.3037C40.9833 50.8862 40.511 51.3585 39.9285 51.3585Z" fill="#A4C9FF"/>
<path d="M51.5325 51.3585H46.5788C45.9963 51.3585 45.524 50.8862 45.524 50.3037V40.0789C45.524 39.5232 45.9747 39.0725 46.5299 39.0725H51.5814C52.1367 39.0725 52.5873 39.5232 52.5873 40.0789V50.3037C52.5873 50.8862 52.115 51.3585 51.5325 51.3585Z" fill="#A4C9FF"/>
<path d="M63.1365 51.3585H58.1828C57.6003 51.3585 57.128 50.8862 57.128 50.3037V40.0789C57.128 39.5232 57.5787 39.0725 58.1339 39.0725H63.1855C63.7412 39.0725 64.1913 39.5232 64.1913 40.0789V50.3037C64.1913 50.8862 63.719 51.3585 63.1365 51.3585Z" fill="#A4C9FF"/>
<path d="M6.95987 51.3584H1.90829C1.35256 51.3584 0.902405 50.9083 0.902405 50.3526V37.3209C0.902405 36.7651 1.35256 36.3145 1.90829 36.3145H6.95987C7.51509 36.3145 7.96575 36.7651 7.96575 37.3209V50.3526C7.96575 50.9083 7.51509 51.3584 6.95987 51.3584Z" fill="#A4C9FF"/>
<path d="M14.34 41.5314H13.9846C13.7652 41.5314 13.6374 41.2934 13.7642 41.1214L15.5369 38.711C15.6446 38.5647 15.8702 38.5647 15.9778 38.711L17.7506 41.1214C17.8773 41.2934 17.7496 41.5314 17.5307 41.5314H17.1748C17.0259 41.5314 16.9049 41.6478 16.9049 41.7915V48.8115C16.9049 48.9552 16.7844 49.0716 16.635 49.0716H14.8803C14.7309 49.0716 14.6099 48.9552 14.6099 48.8115V41.7915C14.6099 41.6483 14.4888 41.5314 14.34 41.5314Z" fill="#F9A7A7"/>
<path d="M3.01666 41.5314H2.66128C2.44239 41.5314 2.31414 41.2934 2.44136 41.1214L4.21415 38.711C4.32179 38.5647 4.54687 38.5647 4.65451 38.711L6.4273 41.1214C6.554 41.2934 6.42627 41.5314 6.20738 41.5314H5.852C5.70263 41.5314 5.5816 41.6478 5.5816 41.7915V48.8115C5.5816 48.9552 5.46108 49.0716 5.31171 49.0716H3.55695C3.4081 49.0716 3.28706 48.9552 3.28706 48.8115V41.7915C3.28655 41.6483 3.16551 41.5314 3.01666 41.5314Z" fill="#F9A7A7"/>
<path d="M35.6789 43.3845H36.0342C36.1831 43.3845 36.3041 43.5009 36.3041 43.6446V49.5027C36.3041 49.7649 36.5168 49.9771 36.779 49.9771H38.1248C38.387 49.9771 38.5992 49.7649 38.5992 49.5027V43.6446C38.5992 43.5009 38.7202 43.3845 38.8696 43.3845H39.225C39.4438 43.3845 39.5721 43.1465 39.4449 42.9745L37.6721 40.5641C37.5629 40.4152 37.3409 40.4152 37.2317 40.5641L35.4589 42.9745C35.3317 43.1465 35.46 43.3845 35.6789 43.3845Z" fill="#F9A7A7"/>
<path d="M47.2829 43.3845H47.6382C47.7876 43.3845 47.9086 43.5009 47.9086 43.6446V49.5027C47.9086 49.7649 48.1208 49.9771 48.383 49.9771H49.7288C49.991 49.9771 50.2032 49.7649 50.2032 49.5027V43.6446C50.2032 43.5009 50.3242 43.3845 50.4736 43.3845H50.829C51.0479 43.3845 51.1761 43.1465 51.0489 42.9745L49.2761 40.5641C49.1669 40.4152 48.9449 40.4152 48.8357 40.5641L47.0629 42.9745C46.9357 43.1465 47.064 43.3845 47.2829 43.3845Z" fill="#F9A7A7"/>
<path d="M58.8869 43.3845H59.2423C59.3916 43.3845 59.5127 43.5009 59.5127 43.6446V49.5027C59.5127 49.7649 59.7249 49.9771 59.987 49.9771H61.3328C61.595 49.9771 61.8077 49.7649 61.8077 49.5027V43.6446C61.8077 43.5009 61.9282 43.3845 62.0776 43.3845H62.433C62.6519 43.3845 62.7801 43.1465 62.6534 42.9745L60.8801 40.5641C60.7709 40.4152 60.5489 40.4152 60.4397 40.5641L58.6669 42.9745C58.5397 43.1465 58.668 43.3845 58.8869 43.3845Z" fill="#F9A7A7"/>
<path d="M25.8178 41.5314H25.4624C25.243 41.5314 25.1153 41.2934 25.242 41.1214L27.0148 38.711C27.1224 38.5647 27.348 38.5647 27.4556 38.711L29.2284 41.1214C29.3551 41.2934 29.2269 41.5314 29.008 41.5314H28.6526C28.5038 41.5314 28.3827 41.6478 28.3827 41.7915V48.8115C28.3827 48.9552 28.2622 49.0716 28.1128 49.0716H26.3576C26.2087 49.0716 26.0877 48.9552 26.0877 48.8115V41.7915C26.0877 41.6483 25.9671 41.5314 25.8178 41.5314Z" fill="#F9A7A7"/>
<path d="M63.1365 59.6136H1.95722C1.08473 59.6136 0.375 58.9039 0.375 58.0314V30.2662C0.375 29.3938 1.08473 28.684 1.95722 28.684H31.7176C32.4217 28.684 33.0841 28.958 33.5821 29.4561L35.3029 31.1779C35.5022 31.3767 35.7675 31.4864 36.0492 31.4864H64.1913C64.4823 31.4864 64.7188 31.7228 64.7188 32.0138V58.0314C64.7188 58.9039 64.009 59.6136 63.1365 59.6136ZM1.95722 29.7388C1.66622 29.7388 1.42982 29.9752 1.42982 30.2662V58.0314C1.42982 58.3219 1.66622 58.5588 1.95722 58.5588H63.1365C63.4275 58.5588 63.6639 58.3219 63.6639 58.0314V32.5412H36.0492C35.4862 32.5412 34.9563 32.3218 34.5576 31.9237L32.8363 30.2019C32.5417 29.9078 32.1343 29.7388 31.7176 29.7388H1.95722Z" fill="#3762CC"/>
</g>
<defs>
<clipPath id="clip0">
<rect x="0.375" y="0.375" width="64.3438" height="64.3438" fill="white"/>
</clipPath>
</defs>
</svg>
