<svg width="65" height="65" viewBox="0 0 65 65" fill="none" xmlns="http://www.w3.org/2000/svg">
<g clip-path="url(#clip0)">
<path d="M61.8719 49.2008H11.576C10.9875 49.2008 10.5103 48.7237 10.5103 48.1352V30.0046H62.9375V48.1352C62.9375 48.7237 62.4604 49.2008 61.8719 49.2008Z" fill="#F9CFCF"/>
<path d="M15.7739 42.4965H13.1104C12.8528 42.4965 12.6447 42.2878 12.6447 42.0308V36.2027C12.6447 35.9451 12.8534 35.737 13.1104 35.737H15.7739C16.031 35.737 16.2396 35.9456 16.2396 36.2027V42.0308C16.2396 42.2878 16.031 42.4965 15.7739 42.4965Z" fill="#E0EBFC"/>
<path d="M22.265 42.4965H19.6014C19.3439 42.4965 19.1352 42.2878 19.1352 42.0308V36.2027C19.1352 35.9451 19.3439 35.737 19.6014 35.737H22.265C22.522 35.737 22.7307 35.9456 22.7307 36.2027V42.0308C22.7307 42.2878 22.522 42.4965 22.265 42.4965Z" fill="#E0EBFC"/>
<path d="M53.7835 42.4965H51.12C50.8629 42.4965 50.6543 42.2878 50.6543 42.0308V36.2027C50.6543 35.9451 50.8629 35.737 51.12 35.737H53.7835C54.041 35.737 54.2497 35.9456 54.2497 36.2027V42.0308C54.2497 42.2878 54.041 42.4965 53.7835 42.4965Z" fill="#E0EBFC"/>
<path d="M60.275 42.4965H57.6115C57.3539 42.4965 57.1453 42.2878 57.1453 42.0308V36.2027C57.1453 35.9451 57.3539 35.737 57.6115 35.737H60.275C60.5321 35.737 60.7407 35.9456 60.7407 36.2027V42.0308C60.7407 42.2878 60.5321 42.4965 60.275 42.4965Z" fill="#E0EBFC"/>
<path d="M61.8719 49.7337H11.5755C10.694 49.7337 9.97702 49.0167 9.97702 48.1352V30.0041C9.97702 29.7101 10.2158 29.4713 10.5098 29.4713H62.9375C63.2315 29.4713 63.4703 29.7101 63.4703 30.0041V48.1352C63.4703 49.0167 62.7533 49.7337 61.8719 49.7337ZM11.0426 30.5374V48.1352C11.0426 48.4292 11.2815 48.668 11.5755 48.668H61.8719C62.1659 48.668 62.4047 48.4292 62.4047 48.1352V30.5374H11.0426Z" fill="#3762CC"/>
<path d="M9.26158 27.7917H64.1858V31.8153H9.26158V27.7917Z" fill="#F9A7A7"/>
<path d="M64.1858 32.3481H9.26159C8.9676 32.3481 8.72878 32.1093 8.72878 31.8153V27.7911C8.72878 27.4972 8.9676 27.2583 9.26159 27.2583H64.1858C64.4803 27.2583 64.7186 27.4972 64.7186 27.7911V31.8153C64.7186 32.1093 64.4803 32.3481 64.1858 32.3481ZM9.7944 31.2825H63.653V28.324H9.7944V31.2825Z" fill="#3762CC"/>
<path d="M36.7403 3.04614H42.5726V7.0698H36.7403V3.04614Z" fill="#6BDDDD"/>
<path d="M36.7232 12.9874L24.5112 22.308V49.2003H48.9351V22.308L36.7232 12.9874Z" fill="#A4C9FF"/>
<path d="M45.5609 49.2008H27.873C27.6076 49.2008 27.3927 48.9854 27.3927 48.7206V47.3173C27.3927 47.0519 27.6076 46.837 27.873 46.837H45.5609C45.8262 46.837 46.0411 47.0519 46.0411 47.3173V48.7206C46.0411 48.9854 45.8262 49.2008 45.5609 49.2008Z" fill="#6BDDDD"/>
<path d="M41.519 46.364H31.9284V38.9807C31.9284 37.1731 33.3936 35.7078 35.2012 35.7078H38.2467C40.0543 35.7078 41.5195 37.1731 41.5195 38.9807V46.364H41.519Z" fill="#4671C6"/>
<path d="M42.0684 26.5684C42.0684 29.5113 39.6828 31.8965 36.7403 31.8965C33.7979 31.8965 31.4122 29.5113 31.4122 26.5684C31.4122 23.6259 33.7979 21.2403 36.7403 21.2403C39.6828 21.2403 42.0684 23.6259 42.0684 26.5684Z" fill="#FFEA92"/>
<path d="M40.47 26.5684C40.47 28.6283 38.8003 30.298 36.7403 30.298C34.6804 30.298 33.0107 28.6283 33.0107 26.5684C33.0107 24.5084 34.6804 22.8387 36.7403 22.8387C38.8003 22.8387 40.47 24.5084 40.47 26.5684Z" fill="#E0EBFC"/>
<path d="M36.7403 12.3578C36.4464 12.3578 36.2075 12.119 36.2075 11.825V3.04615C36.2075 2.75164 36.4464 2.51334 36.7403 2.51334C37.0343 2.51334 37.2732 2.75164 37.2732 3.04615V11.825C37.2732 12.1195 37.0348 12.3578 36.7403 12.3578Z" fill="#3762CC"/>
<path d="M51.6679 21.0878L36.7232 9.62561L21.7785 21.0878C21.5688 21.2486 21.5084 21.5384 21.6364 21.7689L22.4221 23.1847C22.5803 23.4693 22.9544 23.5474 23.2125 23.3491L36.7232 12.9869L50.2339 23.3491C50.4919 23.5474 50.8661 23.4698 51.0237 23.1847L51.8094 21.7689C51.9379 21.5384 51.8776 21.2486 51.6679 21.0878Z" fill="#F9A7A7"/>
<path d="M48.9356 49.7331H24.5112C24.2167 49.7331 23.9784 49.4943 23.9784 49.2003V22.308C23.9784 22.1415 24.0559 21.9848 24.1881 21.8844L36.4 12.5639C36.591 12.4182 36.8558 12.4182 37.0468 12.5639L49.2588 21.8844C49.3909 21.9848 49.4685 22.1415 49.4685 22.308V49.2003C49.4685 49.4948 49.2296 49.7331 48.9356 49.7331ZM25.044 48.6675H48.4028V22.5712L36.7232 13.6576L25.044 22.5712V48.6675Z" fill="#3762CC"/>
<path d="M22.8883 23.9923C22.816 23.9923 22.7437 23.985 22.6713 23.9699C22.368 23.9069 22.1073 23.7149 21.9564 23.4433L21.1707 22.0275C20.9168 21.5702 21.038 20.9843 21.4538 20.6648L36.3995 9.20316C36.5905 9.05643 36.8569 9.05643 37.0478 9.20316L51.9931 20.6648C52.4083 20.9838 52.53 21.5697 52.2761 22.0275L51.4904 23.4433C51.3401 23.7149 51.0794 23.9064 50.7755 23.9699C50.4711 24.0323 50.1563 23.9611 49.9102 23.7722L36.7237 13.6587L23.5366 23.7722C23.3493 23.9163 23.1209 23.9923 22.8883 23.9923ZM36.7232 10.2974L22.1026 21.5103L22.8883 22.9267L36.399 12.5644C36.59 12.4177 36.8564 12.4177 37.0473 12.5644L50.558 22.9267L51.3442 21.5103L36.7232 10.2974Z" fill="#3762CC"/>
<path d="M45.5608 49.7336H27.873C27.3142 49.7336 26.8599 49.2789 26.8599 48.7206V47.3167C26.8599 46.7579 27.3142 46.3037 27.873 46.3037H45.5608C46.1197 46.3037 46.5744 46.7579 46.5744 47.3167V48.7206C46.5739 49.2789 46.1197 49.7336 45.5608 49.7336ZM27.9256 48.668H45.5083V47.3698H27.9256V48.668Z" fill="#3762CC"/>
<path d="M42.5726 7.60261H36.7403C36.4463 7.60261 36.2075 7.36378 36.2075 7.0698V3.04615C36.2075 2.75164 36.4463 2.51334 36.7403 2.51334H42.5726C42.8666 2.51334 43.1054 2.75164 43.1054 3.04615V7.0698C43.1054 7.36378 42.8666 7.60261 42.5726 7.60261ZM37.2731 6.53699H42.0398V3.57896H37.2731V6.53699Z" fill="#3762CC"/>
<path d="M29.4995 61.674L35.7533 57.7091C36.1191 57.4771 36.2273 56.9927 35.9952 56.6269L35.9182 56.5051C35.6862 56.1388 35.2012 56.0306 34.8354 56.2626L27.7065 60.7822L28.0686 61.354C28.3756 61.8369 29.0161 61.9805 29.4995 61.674Z" fill="#F9A7A7"/>
<path d="M13.5334 19.4124C16.0471 19.4124 18.0852 21.45 18.0852 23.9636V26.6355H18.3064C18.6966 26.6355 19.0135 26.9519 19.0135 27.3421C19.0135 27.7323 18.6966 28.0487 18.3064 28.0487H17.9609C17.5696 29.7335 16.2469 31.0614 14.5616 31.4506V32.076C14.1807 31.9475 13.7749 31.8746 13.3513 31.8746H11.0572C10.8933 31.8746 10.7336 31.8913 10.577 31.9162V30.4755C9.60136 29.6409 8.98218 28.4015 8.98218 27.0169V23.9636C8.98218 21.45 11.0198 19.4124 13.5334 19.4124Z" fill="#F9CFCF"/>
<path d="M1.82045 32.2711H6.94563C7.53099 32.2711 8.00604 32.7456 8.00604 33.3315V41.5656C7.33067 42.0859 6.71773 42.6817 6.18075 43.3425V34.0964H1.82045C1.31626 34.0964 0.907806 33.6874 0.907806 33.1837C0.908327 32.6795 1.31626 32.2711 1.82045 32.2711Z" fill="#F9A7A7"/>
<path d="M6.18076 43.8753C6.12092 43.8753 6.06109 43.8654 6.00229 43.8446C5.79 43.7692 5.64795 43.5678 5.64795 43.3425V34.6292H1.82046C1.02332 34.6292 0.375 33.9809 0.375 33.1837C0.375 32.3866 1.02332 31.7383 1.82046 31.7383H6.94563C7.82394 31.7383 8.53834 32.4532 8.53834 33.331V41.5656C8.53834 41.7311 8.46185 41.8872 8.33073 41.9881C7.68813 42.4829 7.10381 43.0516 6.5939 43.6781C6.49087 43.8056 6.3379 43.8753 6.18076 43.8753ZM1.82046 32.8039C1.61129 32.8039 1.44062 32.9746 1.44062 33.1837C1.44062 33.3929 1.61129 33.5636 1.82046 33.5636H6.18076C6.47474 33.5636 6.71357 33.8024 6.71357 34.0964V41.9777C6.95656 41.7435 7.20996 41.5198 7.47324 41.3075V33.3315C7.47324 33.0406 7.23649 32.8044 6.94563 32.8044H1.82046V32.8039ZM8.00605 41.5661H8.00865H8.00605Z" fill="#3762CC"/>
<path d="M16.4207 26.6724C16.6528 26.6724 16.8406 26.4846 16.8406 26.2525V25.5527C16.8406 25.3212 16.6528 25.1333 16.4207 25.1333C16.1892 25.1333 16.0008 25.3212 16.0008 25.5527V26.2525C16.0008 26.4841 16.1892 26.6724 16.4207 26.6724Z" fill="#3762CC"/>
<path d="M30.7051 54.9093L33.6002 54.4166C33.8567 54.3729 34.1168 54.4686 34.2906 54.672L34.7907 55.2564C34.9166 55.4036 34.9863 55.594 34.9863 55.7912C34.9863 56.0733 34.8448 56.3339 34.6143 56.4786L30.1109 59.3024C29.8565 59.4621 29.5552 59.5178 29.2638 59.459C28.9116 59.3877 28.6082 59.1562 28.4349 58.8268L27.9276 57.8606C27.7752 57.5697 27.8475 57.2055 28.0988 57.0036L30.7051 54.9093Z" fill="#A4C9FF"/>
<path d="M29.4933 60.0147C29.3819 60.0147 29.2701 60.0038 29.1587 59.9809C28.6478 59.8779 28.2117 59.548 27.9635 59.0745L27.4562 58.1082C27.1841 57.59 27.3142 56.9505 27.7653 56.5879L30.3711 54.4946C30.4418 54.4374 30.5261 54.3999 30.6156 54.3843L33.5107 53.891C33.9561 53.8151 34.3983 53.9779 34.6955 54.3255L35.1955 54.9098C35.4036 55.1533 35.5191 55.4666 35.5191 55.7918C35.5191 56.2533 35.2808 56.6898 34.8979 56.9302L30.394 59.754C30.1197 59.9257 29.8091 60.0147 29.4933 60.0147ZM30.9309 55.4114L28.4329 57.4188C28.3803 57.461 28.3652 57.5479 28.3996 57.6129L28.9069 58.5797C29.0057 58.767 29.1743 58.8971 29.3694 58.9366C29.5266 58.9689 29.6889 58.9387 29.8278 58.8513L34.3317 56.0275C34.4062 55.9806 34.4535 55.8896 34.4535 55.7918C34.4535 55.7205 34.429 55.6534 34.3864 55.6029L33.8853 55.0186C33.8343 54.9577 33.762 54.9291 33.6891 54.9416L30.9309 55.4114Z" fill="#3762CC"/>
<path d="M22.189 43.5777C23.1131 43.5777 24.0195 43.855 24.8104 44.38C25.5419 44.8655 26.1497 45.5461 26.5769 46.3588L31.2015 54.4696C31.2936 54.6314 31.2587 54.8437 31.1208 54.9603L28.1867 57.4349C28.0322 57.565 27.8095 57.5255 27.7008 57.348L23.828 51.0381L23.4091 50.4017C23.2187 50.1124 22.9133 49.9412 22.5881 49.9412H10.9136C9.30737 49.9412 8.00604 48.5124 8.00604 46.7496V43.5777H22.189Z" fill="#4671C6"/>
<path d="M27.9802 58.0442C27.936 58.0442 27.8912 58.0406 27.847 58.0338C27.5998 57.9943 27.3808 57.8455 27.246 57.6269L23.3738 51.3165L22.9643 50.6947C22.8727 50.5568 22.7322 50.4741 22.5876 50.4741H10.9136C9.01651 50.4741 7.47324 48.8033 7.47324 46.7501V43.5782C7.47324 43.2842 7.71154 43.0454 8.00605 43.0454H22.189C23.2177 43.0454 24.2261 43.3534 25.1044 43.9362C25.9083 44.4695 26.58 45.2214 27.0478 46.1106L31.6635 54.2063C31.8821 54.5882 31.7962 55.0877 31.4637 55.3677L28.5296 57.8423C28.3741 57.9735 28.1789 58.0442 27.9802 58.0442ZM8.53886 44.111V46.7496C8.53886 48.2159 9.60396 49.4084 10.9136 49.4084H22.5876C23.0918 49.4084 23.5652 49.6696 23.854 50.1088L24.2729 50.7451L28.0312 56.8683L30.6812 54.6335L26.1138 46.6226C25.7199 45.8749 25.1699 45.2583 24.5148 44.8234C23.8119 44.3571 23.0075 44.1105 22.1885 44.1105H8.53886V44.111ZM30.7384 54.7334H30.741H30.7384Z" fill="#3762CC"/>
<path d="M10.8808 49.9413H17.132V35.5492C17.132 33.5199 15.4867 31.8746 13.4575 31.8746H10.9714C9.33391 31.8746 8.00604 33.2025 8.00604 34.84V47.066C8.00604 48.654 9.29332 49.9413 10.8808 49.9413Z" fill="#6BDDDD"/>
<path d="M17.132 50.4741H10.8808C9.00194 50.4741 7.47324 48.9453 7.47324 47.0665V34.8399C7.47324 32.9111 9.04253 31.3418 10.9714 31.3418H13.4575C15.7776 31.3418 17.6648 33.2295 17.6648 35.5491V49.9412C17.6648 50.2352 17.4265 50.4741 17.132 50.4741ZM10.9714 32.4074C9.62997 32.4074 8.53886 33.4985 8.53886 34.8399V47.0665C8.53886 48.3579 9.58939 49.4084 10.8808 49.4084H16.5992V35.5496C16.5992 33.817 15.1901 32.4079 13.4575 32.4079H10.9714V32.4074Z" fill="#3762CC"/>
<path d="M24.9202 50.9699C24.9202 57.0207 20.0146 61.9263 13.9637 61.9263C7.91239 61.9263 3.00731 57.0207 3.00731 50.9699C3.00731 44.9186 7.91239 40.0135 13.9637 40.0135C20.0146 40.0135 24.9202 44.9186 24.9202 50.9699Z" fill="#FFEA92"/>
<path d="M13.9637 62.4592C7.6283 62.4592 2.4745 57.3048 2.4745 50.9699C2.4745 44.635 7.6283 39.4807 13.9637 39.4807C20.2987 39.4807 25.453 44.635 25.453 50.9699C25.453 57.3048 20.2987 62.4592 13.9637 62.4592ZM13.9637 40.5463C8.21626 40.5463 3.54012 45.2224 3.54012 50.9699C3.54012 56.7174 8.21626 61.3935 13.9637 61.3935C19.7107 61.3935 24.3874 56.7174 24.3874 50.9699C24.3874 45.2224 19.7107 40.5463 13.9637 40.5463Z" fill="#3762CC"/>
<path d="M22.4591 50.9699C22.4591 55.6617 18.6555 59.4658 13.9637 59.4658C9.27148 59.4658 5.46793 55.6617 5.46793 50.9699C5.46793 46.2777 9.27148 42.4741 13.9637 42.4741C18.6555 42.4741 22.4591 46.2777 22.4591 50.9699Z" fill="#A4C9FF"/>
<path d="M14.4367 26.7676C14.4367 27.6579 13.7156 28.3791 12.8253 28.3791C11.9355 28.3791 11.2138 27.6579 11.2138 26.7676C11.2138 25.8779 11.9355 25.1562 12.8253 25.1562C13.7156 25.1562 14.4367 25.8779 14.4367 26.7676Z" fill="#F9CFCF"/>
<path d="M14.5616 32.6088C14.5038 32.6088 14.4461 32.6 14.3904 32.5812C14.0501 32.4657 13.7005 32.408 13.3513 32.408H11.0572C10.9381 32.408 10.808 32.4194 10.6602 32.4428C10.5067 32.4673 10.3491 32.423 10.2309 32.3221C10.1123 32.2206 10.0441 32.0724 10.0441 31.9168V30.7133C9.02743 29.7533 8.44936 28.4202 8.44936 27.0174V23.9636C8.44936 21.1607 10.7305 18.8796 13.534 18.8796C16.3375 18.8796 18.618 21.1607 18.618 23.9636V26.1422C19.1514 26.2812 19.5463 26.7666 19.5463 27.3426C19.5463 28.006 19.0218 28.5492 18.3657 28.5805C17.8646 30.1258 16.6356 31.3559 15.0944 31.8554V32.076C15.0944 32.2482 15.0117 32.409 14.8722 32.5089C14.7806 32.575 14.6714 32.6088 14.5616 32.6088ZM11.1092 31.3418H13.3513C13.5787 31.3418 13.8056 31.3606 14.0314 31.397C14.0538 31.1717 14.2177 30.9828 14.4414 30.9313C15.9196 30.59 17.0976 29.4114 17.4421 27.9285C17.4983 27.6876 17.7132 27.5164 17.9609 27.5164H18.3064C18.4026 27.5164 18.4807 27.4384 18.4807 27.3426C18.4807 27.2464 18.4026 27.1683 18.3064 27.1683H18.0852C17.7907 27.1683 17.5524 26.9295 17.5524 26.6355V23.9636C17.5524 21.7481 15.7495 19.9452 13.5334 19.9452C11.3174 19.9452 9.51498 21.7476 9.51498 23.9636V27.0169C9.51498 28.1918 10.028 29.3048 10.923 30.0707C11.0411 30.1721 11.1092 30.3204 11.1092 30.476V31.3418Z" fill="#3762CC"/>
<path d="M8.16579 20.8365L8.16631 20.837C8.97853 19.5966 10.4292 18.7698 12.0843 18.7698C12.4366 18.7698 12.7223 19.0398 12.7223 19.3734V19.4998C12.7223 19.3505 12.768 19.2121 12.8461 19.0965C12.8461 19.0965 12.8679 19.0518 12.933 18.9914C13.0183 18.9051 13.125 18.839 13.2457 18.802C13.4143 18.7344 13.65 18.6787 13.9747 18.6652V18.6647H13.9767C14.3139 18.6506 14.7468 18.6824 15.3025 18.7948C15.7068 18.839 16.0929 18.942 16.4519 19.0955C16.4535 19.096 16.4545 19.096 16.4561 19.0965L16.4556 19.0971C16.6595 19.1845 16.8541 19.288 17.0394 19.4061C17.1195 19.455 17.1596 19.4863 17.1601 19.4863C18.1966 20.2012 18.8751 21.3849 18.8751 22.7248V24.1739C18.8751 24.241 18.8194 24.2956 18.7512 24.2956H12.7223V28.6231L11.9948 30.1066C11.9745 30.1487 11.9314 30.1752 11.8835 30.1752H9.99524C9.80428 30.1752 9.61697 30.1482 9.43745 30.0967C9.43173 30.0946 9.24025 30.0134 9.16272 29.8891C8.97905 29.5956 8.54718 28.9036 8.15434 28.2719C7.57106 27.3338 7.23961 26.2624 7.2136 25.1635C7.14231 22.1519 8.16579 20.8365 8.16579 20.8365Z" fill="#4671C6"/>
<path d="M11.8835 30.7081H9.99524C9.75746 30.7081 9.52019 30.6743 9.29073 30.6082C9.27199 30.603 9.25378 30.5967 9.23609 30.5894C9.15284 30.5556 8.86979 30.425 8.71109 30.1716C8.52741 29.8776 8.09503 29.1856 7.70218 28.5529C7.06219 27.5242 6.70889 26.3566 6.68131 25.176C6.60898 22.1399 7.61165 20.6893 7.73444 20.5233C8.68299 19.0908 10.3064 18.237 12.0843 18.237C12.3357 18.237 12.5693 18.3145 12.7602 18.4462C12.8539 18.3853 12.9574 18.3348 13.0672 18.2994C13.3159 18.2032 13.6136 18.147 13.9513 18.1324C14.367 18.1163 14.8472 18.1605 15.3837 18.2682C15.8177 18.3182 16.2396 18.4285 16.6403 18.5965C16.6569 18.6028 16.6731 18.6101 16.6892 18.6179C16.9072 18.7126 17.1211 18.8265 17.325 18.9566C17.4005 19.0029 17.4499 19.0388 17.4671 19.0513C18.682 19.8916 19.4068 21.2642 19.4068 22.7237V24.1734C19.4068 24.5339 19.1129 24.8274 18.7502 24.8274H13.2551V28.6221C13.2551 28.7033 13.2363 28.7834 13.2004 28.8563L12.4735 30.3402C12.3611 30.5676 12.1358 30.7081 11.8835 30.7081ZM9.62425 29.5951C9.74601 29.6263 9.87037 29.6425 9.99524 29.6425H11.6291L12.1894 28.4988V24.2951C12.1894 24.0011 12.4283 23.7623 12.7223 23.7623H18.3417V22.7243C18.3417 21.6123 17.7866 20.566 16.8567 19.9244C16.8521 19.9213 16.8474 19.9182 16.8427 19.9145C16.837 19.9098 16.8094 19.8901 16.7605 19.8609C16.5888 19.7517 16.4186 19.6611 16.2454 19.5867C16.2443 19.5867 16.2433 19.5857 16.2428 19.5857C15.9248 19.4504 15.5892 19.3624 15.2437 19.325C15.2281 19.3229 15.212 19.3208 15.1964 19.3177C14.7338 19.224 14.3306 19.184 13.9981 19.1975C13.715 19.2095 13.5402 19.2584 13.4434 19.2974C13.4289 19.3026 13.4143 19.3083 13.3997 19.3125C13.3669 19.3224 13.3362 19.3411 13.3113 19.3661C13.3113 19.3661 13.3024 19.3749 13.2967 19.3807C13.2936 19.3853 13.291 19.3895 13.2878 19.3942C13.266 19.427 13.2551 19.4629 13.2551 19.5003C13.2551 19.7943 13.0162 20.0331 12.7223 20.0331C12.4278 20.0331 12.1894 19.7943 12.1894 19.5003V19.3734C12.1894 19.3401 12.1447 19.3026 12.0843 19.3026C10.6581 19.3026 9.36045 19.9858 8.61223 21.1289C8.60286 21.143 8.59297 21.1565 8.58257 21.17C8.49828 21.2902 7.68397 22.5323 7.74641 25.1505C7.76982 26.1407 8.06745 27.1225 8.6065 27.9899C8.98738 28.6023 9.40468 29.271 9.59668 29.5785C9.605 29.5837 9.61489 29.5894 9.62425 29.5951ZM13.3217 19.3354V19.3364C13.3217 19.3359 13.3217 19.3359 13.3217 19.3354ZM13.3227 19.3333C13.3227 19.3338 13.3222 19.3349 13.3222 19.3354C13.3222 19.3349 13.3227 19.3338 13.3227 19.3333ZM13.3232 19.3323C13.3232 19.3328 13.3232 19.3328 13.3227 19.3333C13.3232 19.3328 13.3232 19.3328 13.3232 19.3323ZM13.3237 19.3312C13.3237 19.3317 13.3237 19.3323 13.3232 19.3323C13.3237 19.3323 13.3237 19.3317 13.3237 19.3312Z" fill="#3762CC"/>
<path d="M14.4367 26.7676C14.4367 27.6579 13.7156 28.3791 12.8253 28.3791C11.9355 28.3791 11.2138 27.6579 11.2138 26.7676C11.2138 25.8779 11.9355 25.1562 12.8253 25.1562C13.7156 25.1562 14.4367 25.8779 14.4367 26.7676Z" fill="#F9CFCF"/>
<path d="M28.9469 62.3676C28.4271 62.3676 27.9177 62.11 27.6191 61.6391L27.2564 61.0673C27.181 60.9481 27.1555 60.8035 27.1867 60.6656C27.2174 60.5272 27.3017 60.4075 27.4208 60.3321L34.5498 55.812C34.8474 55.6242 35.2002 55.5623 35.5436 55.6393C35.887 55.7163 36.1799 55.9223 36.3683 56.2195L36.4453 56.3412C36.6337 56.6383 36.6951 56.9911 36.6186 57.3345C36.5416 57.6779 36.335 57.9709 36.0379 58.1592L29.7847 62.1241C29.525 62.289 29.2342 62.3676 28.9469 62.3676ZM29.4995 61.6745H29.5021H29.4995ZM28.4417 60.9466L28.5187 61.0683C28.6675 61.303 28.9797 61.3727 29.2139 61.2239L35.4676 57.2591C35.5441 57.2107 35.5701 57.1399 35.5785 57.1019C35.5868 57.0634 35.5941 56.988 35.5452 56.9115L35.4681 56.7902C35.4198 56.7132 35.3485 56.6872 35.3105 56.6789C35.272 56.6706 35.1971 56.6633 35.1206 56.7122L28.4417 60.9466Z" fill="#3762CC"/>
<path d="M13.9638 59.9986C8.98531 59.9986 4.93512 55.9484 4.93512 50.9699C4.93512 45.9915 8.98531 41.9413 13.9638 41.9413C18.9417 41.9413 22.9919 45.9915 22.9919 50.9699C22.9919 55.9484 18.9417 59.9986 13.9638 59.9986ZM13.9638 43.0069C9.57275 43.0069 6.00074 46.5794 6.00074 50.9699C6.00074 55.3609 9.57275 58.9329 13.9638 58.9329C18.3542 58.9329 21.9262 55.3609 21.9262 50.9699C21.9262 46.5794 18.3542 43.0069 13.9638 43.0069Z" fill="#3762CC"/>
<path d="M18.4921 50.9699C18.4921 53.4711 16.4644 55.4983 13.9637 55.4983C11.4625 55.4983 9.43484 53.4711 9.43484 50.9699C9.43484 48.4687 11.4625 46.441 13.9637 46.441C16.4644 46.441 18.4921 48.4687 18.4921 50.9699Z" fill="#E0EBFC"/>
<path d="M3.10097 49.0754L3.87886 47.042L7.0445 37.4353C7.0445 37.4358 7.0445 37.4358 7.04502 37.4358L10.0728 40.1098C10.0884 40.1233 10.105 40.1342 10.1217 40.1446L6.56112 47.8454L6.48359 50.1686C6.48099 50.2519 6.46486 50.3341 6.43728 50.4121L6.23071 50.9965C6.09595 51.3773 5.70102 51.6011 5.30506 51.5209L3.70299 51.1968C3.3294 51.1213 3.05883 50.7961 3.05259 50.4153L3.03646 49.4386C3.03489 49.3143 3.05675 49.1909 3.10097 49.0754Z" fill="#F9CFCF"/>
<path d="M5.46324 52.0694C5.37583 52.0694 5.28789 52.061 5.19944 52.0428L3.59737 51.7187C2.98391 51.5943 2.5307 51.0495 2.5203 50.4236L2.50417 49.4469C2.50105 49.2549 2.53435 49.0661 2.60303 48.8855C2.60303 48.885 2.60303 48.885 2.60303 48.8845L3.38091 46.8516L6.53823 37.2688C6.59442 37.0986 6.73231 36.968 6.90506 36.9212C7.0778 36.8754 7.26304 36.9176 7.3978 37.0367L10.412 39.6982C10.628 39.8439 10.7154 40.1306 10.6056 40.3684L7.09029 47.9708L7.0164 50.1863C7.01172 50.3226 6.98623 50.4584 6.94044 50.589L6.73335 51.1739C6.54135 51.7166 6.02207 52.0694 5.46324 52.0694ZM3.59893 49.2653C3.57863 49.3179 3.56875 49.3731 3.56979 49.4292L3.58644 50.4059C3.58852 50.5355 3.68166 50.6484 3.80914 50.6744L5.41121 50.9985C5.54545 51.0251 5.68282 50.9486 5.72861 50.8185L5.93517 50.2342C5.94454 50.2077 5.95026 50.1796 5.9513 50.1515L6.02883 47.8267C6.03143 47.7559 6.04808 47.6856 6.07774 47.6211L9.4692 40.2872L7.2979 38.3698L4.38513 47.209L3.59893 49.2653Z" fill="#3762CC"/>
<path d="M7.04502 37.4358L10.0728 40.1097C10.219 40.2388 10.4427 40.2247 10.5718 40.0785L14.3332 35.8186C15.2006 34.8363 15.1074 33.3367 14.1245 32.4693C13.1422 31.602 11.6426 31.6951 10.7752 32.6775L7.01432 36.9373C6.88476 37.0836 6.89829 37.3068 7.04502 37.4358Z" fill="#6BDDDD"/>
<path d="M10.3064 40.7305C10.0977 40.7305 9.8891 40.6577 9.72051 40.5094L6.69223 37.8354C6.5148 37.6788 6.40918 37.4624 6.39409 37.2261C6.37952 36.9899 6.45757 36.7615 6.61471 36.5841L10.3756 32.3252C11.4355 31.1238 13.2759 31.0093 14.4773 32.0697C15.6782 33.1302 15.7927 34.9705 14.7323 36.1714L10.9708 40.4313C10.796 40.629 10.552 40.7305 10.3064 40.7305ZM10.4255 39.7102H10.4282H10.4255ZM7.53204 37.1554L10.2913 39.5915L13.9336 35.4659C14.6053 34.7057 14.5325 33.5402 13.7717 32.8684C13.0116 32.1967 11.8465 32.2695 11.1743 33.0303L7.53204 37.1554ZM7.39727 37.0362C7.39727 37.0367 7.39727 37.0367 7.39727 37.0362V37.0362Z" fill="#3762CC"/>
<path d="M27.7065 60.7822L29.152 59.8659L24.7375 52.9534C24.5986 53.7115 24.3832 54.4426 24.0975 55.1377L27.9568 61.1813L27.9583 61.1802L27.7065 60.7822Z" fill="#E0EBFC"/>
<path d="M27.9573 61.713C27.7809 61.713 27.6087 61.6261 27.5077 61.4674L23.6485 55.4239C23.5548 55.2777 23.5387 55.095 23.6048 54.9343C23.878 54.2709 24.083 53.5721 24.2136 52.8571C24.2531 52.6417 24.4201 52.4726 24.635 52.43C24.8499 52.3868 25.069 52.4815 25.1866 52.6662L29.601 59.5787C29.677 59.6973 29.703 59.8425 29.6723 59.9809C29.6416 60.1193 29.5568 60.2395 29.4376 60.3154L28.4386 60.9482C28.4922 61.0595 28.5057 61.187 28.4761 61.3082C28.4407 61.4492 28.3496 61.5699 28.2232 61.6423C28.1394 61.6901 28.0478 61.713 27.9573 61.713ZM24.6933 55.0805L27.8668 60.0496L28.4157 59.702L24.9618 54.2937C24.8817 54.5596 24.7922 54.8224 24.6933 55.0805Z" fill="#3762CC"/>
</g>
<defs>
<clipPath id="clip0">
<rect x="0.375" y="0.375" width="64.3438" height="64.3438" fill="white"/>
</clipPath>
</defs>
</svg>
