<svg width="65" height="65" viewBox="0 0 65 65" fill="none" xmlns="http://www.w3.org/2000/svg">
<g clip-path="url(#clip0)">
<path d="M40.9025 39.5478L39.1159 39.2829L26.9491 34.3913C26.792 34.3276 26.6749 34.1931 26.6344 34.0283L25.4094 29.0269L23.4847 38.9302L37.3108 43.5923L39.0415 45.633L42.9197 46.7168L44.581 41.7744L40.9025 39.5478Z" fill="#F9CFCF"/>
<path d="M42.9201 47.2425C42.8729 47.2425 42.8257 47.2363 42.7785 47.223L38.8998 46.1392C38.7986 46.111 38.7083 46.0535 38.6405 45.9734L37.0043 44.0435L23.3168 39.4281C23.0673 39.344 22.9184 39.0883 22.9687 38.8295L24.8934 28.9267C24.9407 28.6844 25.1501 28.5073 25.3971 28.5016C25.6445 28.4868 25.8617 28.6623 25.9202 28.9021L27.1452 33.903L39.2545 38.7715L40.9795 39.0272C41.0488 39.0375 41.1156 39.0611 41.1751 39.0975L44.8536 41.3246C45.0641 41.4519 45.158 41.7086 45.0795 41.9417L43.4181 46.8846C43.3442 47.1028 43.1404 47.2425 42.9201 47.2425ZM39.3382 45.1699L42.5803 46.076L43.9485 42.0059L40.7208 40.0519L39.0389 39.8029C38.9978 39.7968 38.9578 39.786 38.9198 39.7706L26.7524 34.879C26.4387 34.7527 26.2041 34.4811 26.1235 34.1531L25.4684 31.4783L24.0884 38.579L37.4787 43.0943C37.5696 43.1246 37.6497 43.179 37.7118 43.2524L39.3382 45.1699Z" fill="#3762CC"/>
<path d="M28.4615 13.1128C28.8496 13.3191 29.1602 13.6364 29.363 14.0148L29.7265 12.4659L28.2233 12.1584L27.77 14.0887L28.25 14.2017L28.4615 13.1128Z" fill="#4671C6"/>
<path d="M28.25 14.7268C28.2094 14.7268 28.1694 14.7222 28.1299 14.713L27.6498 14.6C27.5138 14.5682 27.3962 14.4835 27.3228 14.3654C27.2499 14.2468 27.2263 14.1036 27.2581 13.9681L27.7114 12.0377C27.7766 11.7605 28.0498 11.5844 28.3285 11.6429L29.8323 11.9504C29.9709 11.9787 30.0931 12.0623 30.1696 12.182C30.2461 12.3016 30.2712 12.4474 30.2384 12.5855L29.8744 14.1344C29.8246 14.3475 29.6485 14.5071 29.4313 14.5354C29.2141 14.5626 29.0031 14.4553 28.8994 14.2622C28.8707 14.2078 28.8389 14.1554 28.8045 14.1051L28.766 14.3012C28.7387 14.4414 28.6556 14.5646 28.5354 14.6421C28.4497 14.6981 28.3501 14.7268 28.25 14.7268ZM29.0493 12.8643C29.0617 12.873 29.074 12.8822 29.0863 12.892L29.0909 12.8725L29.0493 12.8643Z" fill="#3762CC"/>
<path d="M22.2454 45.3065L7.2569 42.393L10.8178 24.0726C11.2228 21.9888 13.2405 20.6278 15.3243 21.0329L22.7665 22.4796C24.8503 22.8847 26.2113 24.9023 25.8062 26.9861L22.2454 45.3065Z" fill="#E0EBFC"/>
<path d="M20.275 21.0426C18.8498 20.7654 17.6248 20.0435 16.7136 19.0491C16.7105 19.0465 16.7074 19.0445 16.7043 19.0419L16.2068 21.6001C16.1288 22.0006 16.3901 22.3882 16.7906 22.4657L21.7623 23.4324C22.1627 23.5105 22.5503 23.2486 22.6278 22.8482L22.9882 20.9943C22.1232 21.1951 21.2032 21.2228 20.275 21.0426Z" fill="#F9CFCF"/>
<path d="M25.8062 26.9861L24.4278 34.0776L27.2335 33.326C27.5138 33.2506 27.6801 32.9625 27.6052 32.6822L25.9402 26.4697C25.9223 26.4004 25.8971 26.3346 25.875 26.2674C25.874 26.5046 25.853 26.7448 25.8062 26.9861Z" fill="#E0EBFC"/>
<path d="M24.4278 34.6028C24.2964 34.6028 24.168 34.5535 24.0694 34.4616C23.937 34.3379 23.8774 34.1546 23.9118 33.977L25.2903 26.8855C25.3288 26.6889 25.3483 26.4799 25.3493 26.2648C25.3509 26.0071 25.5388 25.7884 25.7934 25.7478C26.0475 25.7078 26.294 25.8582 26.3746 26.1026L26.392 26.1555C26.4121 26.214 26.4321 26.2725 26.4485 26.3331L28.1129 32.5456C28.2628 33.1057 27.9296 33.6833 27.3695 33.8332L24.5644 34.5848C24.5192 34.5972 24.4735 34.6028 24.4278 34.6028ZM26.0024 28.7322L25.1044 33.3517L27.0969 32.8177L26.0024 28.7322Z" fill="#3762CC"/>
<path d="M22.2454 45.8322C22.212 45.8322 22.1781 45.8291 22.1447 45.8225L7.15629 42.909C6.87136 42.854 6.68551 42.5778 6.74044 42.2924L10.3018 23.972C10.7618 21.6073 13.0608 20.0559 15.4245 20.5169L15.8649 20.6026L16.1879 18.9413C16.2243 18.7544 16.3583 18.6019 16.5395 18.5424C16.7126 18.4854 16.902 18.5219 17.0411 18.6384C17.0622 18.6548 17.0837 18.6754 17.1012 18.6944C17.9729 19.6457 19.105 20.2792 20.3751 20.5266C21.2068 20.6879 22.0462 20.6735 22.8697 20.4825C23.0437 20.4414 23.2249 20.4928 23.3533 20.616C23.4816 20.7402 23.5381 20.9199 23.5042 21.095L23.3137 22.0745C25.4233 22.7199 26.7524 24.8735 26.3222 27.0862L22.7613 45.4066C22.7341 45.5437 22.6545 45.6638 22.539 45.7419C22.4518 45.8014 22.3491 45.8322 22.2454 45.8322ZM7.8735 41.9772L21.8295 44.6899L25.2903 26.8855C25.6394 25.0897 24.4622 23.3447 22.6664 22.9955L22.6017 22.9827C22.3167 22.9273 22.1309 22.6516 22.1858 22.3666L22.327 21.6422C21.6118 21.7254 20.891 21.6977 20.1749 21.5586C19.0074 21.3316 17.9385 20.826 17.0375 20.081L16.7973 21.3193C16.7706 21.4564 16.691 21.5765 16.575 21.6546C16.4595 21.7326 16.3172 21.7624 16.1807 21.7347L15.2242 21.5488C13.4284 21.2012 11.6834 22.3769 11.3348 24.1728L7.8735 41.9772ZM16.7043 19.0419H16.7069H16.7043Z" fill="#3762CC"/>
<path d="M53.8708 44.3588C53.8046 47.664 50.9943 50.3968 47.5925 50.4625L43.9777 50.5328L43.9721 50.8239C43.9618 51.3373 43.5254 51.7614 42.9972 51.7721C42.4689 51.7824 42.0489 51.3748 42.0592 50.8614L42.0684 50.407C39.7992 49.9363 38.0383 48.2333 37.5557 46.0268L36.7086 46.0432C36.8929 45.5401 37.0018 45.0041 37.0131 44.4471L37.0736 41.4304C37.0778 41.2148 37.0598 41.0053 37.0305 40.7994L38.9799 40.762C40.135 39.4574 41.8282 38.6108 43.7015 38.5744L47.8323 38.4938C51.2335 38.4281 53.937 41.0536 53.8708 44.3588Z" fill="#F9CFCF"/>
<path d="M43.9716 48.3458C43.9654 48.6507 44.2149 48.893 44.5286 48.8869L45.4753 48.8684C45.7885 48.8622 46.0482 48.6102 46.0544 48.3052C46.06 48.0008 45.8111 47.7585 45.4974 47.7646L44.5507 47.7831C44.237 47.7887 43.9777 48.0408 43.9716 48.3458Z" fill="#3762CC"/>
<path d="M45.8994 42.621C45.3737 41.589 44.0686 41.1999 42.9854 41.7523C41.9016 42.3042 41.4498 43.5882 41.9755 44.6201C42.5012 45.652 43.8058 46.0412 44.8895 45.4893C45.9728 44.9369 46.4251 43.6529 45.8994 42.621Z" fill="#F9CFCF"/>
<path d="M42.9771 52.2984C42.5834 52.2984 42.2178 52.149 41.9447 51.8753C41.6716 51.6027 41.5258 51.2387 41.5335 50.8511L41.534 50.8188C39.4178 50.2294 37.7565 48.6158 37.1501 46.5607L36.7189 46.5694C36.5418 46.5684 36.3816 46.4899 36.2805 46.3492C36.1798 46.208 36.1552 46.0258 36.2147 45.863C36.3862 45.3948 36.4776 44.9148 36.4874 44.4368L36.5479 41.4201C36.551 41.2548 36.5387 41.0761 36.5094 40.8744C36.4879 40.7255 36.5315 40.574 36.6296 40.4596C36.7271 40.3451 36.8693 40.2773 37.0197 40.2742L38.7442 40.2403C40.0318 38.8809 41.8215 38.0851 43.6908 38.0487L47.822 37.9686C49.643 37.9373 51.3362 38.6011 52.5848 39.8507C53.7876 41.0536 54.4304 42.6589 54.3965 44.369C54.3252 47.9474 51.2771 50.9168 47.6028 50.9882L44.4773 51.0493C44.3577 51.7408 43.739 52.2835 43.0069 52.2979C42.9972 52.2979 42.9869 52.2984 42.9771 52.2984ZM37.5557 45.5011C37.8022 45.5011 38.0162 45.6725 38.0691 45.9143C38.504 47.9037 40.1155 49.465 42.1747 49.8921C42.4227 49.9434 42.5988 50.1642 42.5936 50.4173L42.5844 50.8722C42.5818 50.9985 42.6393 51.0832 42.6881 51.1319C42.7641 51.2079 42.8678 51.2505 42.9864 51.2464C43.2313 51.2418 43.4412 51.0442 43.4464 50.8142L43.452 50.5231C43.4577 50.2407 43.6851 50.0133 43.967 50.0076L47.5818 49.9373C50.6991 49.8767 53.2845 47.3693 53.3446 44.348C53.3733 42.9264 52.8389 41.5931 51.8408 40.5941C50.7966 39.5493 49.3776 38.9943 47.842 39.02L43.7113 39.1006C42.0566 39.1324 40.4754 39.8651 39.3731 41.1105C39.2756 41.2204 39.1365 41.2846 38.9896 41.2877L37.5994 41.3149C37.5999 41.3575 37.5999 41.3996 37.5994 41.4412L37.5388 44.4579C37.5321 44.808 37.4895 45.1576 37.413 45.5041L37.5455 45.5011H37.5557Z" fill="#3762CC"/>
<path d="M52.0852 37.3387H52.0842C53.7419 38.3742 54.8221 40.2599 54.7785 42.4366C54.7692 42.8997 54.396 43.2822 53.9452 43.2909L53.7738 43.294C53.9755 43.2904 54.1614 43.3469 54.3159 43.446C54.3159 43.446 54.376 43.4732 54.456 43.5569C54.571 43.6672 54.6573 43.8059 54.704 43.963C54.7908 44.1832 54.8606 44.4912 54.8704 44.9179H54.8709C54.8709 44.9189 54.8709 44.9194 54.8704 44.9204C54.8806 45.3635 54.8262 45.9334 54.6594 46.667C54.589 47.1999 54.4391 47.7102 54.223 48.1866C54.2219 48.1882 54.2214 48.1897 54.2209 48.1918L54.2204 48.1912C54.0972 48.4618 53.9514 48.7206 53.7871 48.9665C53.7183 49.0738 53.6757 49.1272 53.6757 49.1277C52.6807 50.5097 51.0615 51.4323 49.2487 51.4677L47.286 51.5057C47.1967 51.5078 47.1248 51.4354 47.1264 51.346L47.285 43.4198L43.0341 43.503L41.4298 43.5343L39.4419 42.6174C39.386 42.5917 39.3505 42.5347 39.3516 42.4731L39.3649 41.8216L39.3695 41.589L39.4014 39.9903C39.4065 39.7393 39.4486 39.4918 39.5225 39.2546C39.5261 39.2475 39.6406 38.9933 39.8111 38.8881C40.213 38.6391 41.1602 38.0528 42.0258 37.5194C43.3103 36.7277 44.7684 36.2641 46.2562 36.201C50.3325 36.027 52.0852 37.3387 52.0852 37.3387Z" fill="#4671C6"/>
<path d="M47.2829 52.0319C47.1027 52.0319 46.9277 51.9595 46.8004 51.8322C46.67 51.7018 46.5971 51.5206 46.6012 51.3358L46.7485 43.9563L41.44 44.06C41.363 44.0615 41.2819 44.0446 41.21 44.0112L39.2217 43.0948C38.9763 42.9819 38.8202 42.7339 38.8264 42.4623L38.8756 39.9795C38.8818 39.6823 38.9306 39.3856 39.0209 39.0975C39.0276 39.0765 39.0358 39.0549 39.0451 39.0349C39.101 38.9127 39.2607 38.6098 39.5333 38.4409C39.9358 38.1919 40.884 37.6056 41.7496 37.0722C43.124 36.2246 44.6744 35.742 46.2336 35.6753C50.3155 35.5012 52.2012 36.775 52.3876 36.9084C54.2604 38.0903 55.3499 40.1582 55.3042 42.4469C55.298 42.7832 55.1691 43.0938 54.9628 43.334C55.0654 43.4665 55.1486 43.6231 55.2015 43.791C55.3201 44.1 55.3853 44.4722 55.3961 44.8978C55.3961 44.903 55.3961 44.9081 55.3966 44.9138C55.4079 45.4446 55.3345 46.0658 55.1779 46.7604C55.1003 47.3257 54.9407 47.877 54.703 48.4002C54.7009 48.4053 54.6989 48.4099 54.6968 48.4151C54.5649 48.7036 54.4057 48.9875 54.2245 49.2591C54.1968 49.3022 54.147 49.3777 54.1003 49.4378C52.9734 51.001 51.1642 51.9565 49.2595 51.9934L47.2963 52.0319C47.2917 52.0319 47.287 52.0319 47.2829 52.0319ZM47.285 42.8946C47.4246 42.8946 47.5581 42.95 47.6572 43.0486C47.7583 43.1497 47.8138 43.2878 47.8107 43.4306L47.6598 50.9728L49.239 50.942C50.8156 50.9117 52.3147 50.1185 53.2491 48.8201C53.2537 48.814 53.2588 48.8073 53.2639 48.8012C53.2722 48.7904 53.3014 48.7508 53.3446 48.6831C53.5011 48.449 53.6331 48.2128 53.7424 47.9741C53.7435 47.971 53.745 47.9684 53.746 47.9654C53.9442 47.5295 54.0761 47.0695 54.1388 46.5987C54.1408 46.5828 54.1434 46.5669 54.1475 46.551C54.2887 45.9287 54.3554 45.3845 54.3452 44.9333C54.3452 44.9276 54.3452 44.9215 54.3452 44.9153C54.3375 44.6196 54.2928 44.3531 54.2153 44.157C54.2096 44.1421 54.2045 44.1277 54.1999 44.1123C54.1804 44.0466 54.1434 43.9861 54.0926 43.9373C54.0838 43.9286 54.0777 43.9219 54.0725 43.9173C54.0535 43.9111 54.0684 43.9121 54.032 43.8885C53.9601 43.8423 53.8739 43.8136 53.7845 43.8202C53.7804 43.8182 53.7779 43.8202 53.7743 43.8202C53.4883 43.8202 53.2542 43.5918 53.2485 43.3048C53.2429 43.0142 53.4734 42.7744 53.764 42.7688L53.935 42.7657C54.1039 42.7621 54.2497 42.6071 54.2527 42.4264C54.2918 40.5017 53.3769 38.7664 51.8059 37.7853C51.79 37.7756 51.7756 37.7653 51.7613 37.754C51.6021 37.6467 49.9069 36.5722 46.2782 36.7262C44.8982 36.7852 43.5234 37.2144 42.3015 37.9676C41.4364 38.5005 40.4892 39.0868 40.0873 39.3352C40.0749 39.347 40.0385 39.4004 40.0133 39.4487C39.9594 39.6299 39.9307 39.8158 39.9271 40.0011L39.8824 42.2421L41.5412 43.007L47.2752 42.8956C47.2783 42.8946 47.2819 42.8946 47.285 42.8946ZM39.6606 42.1389L39.6627 42.1399C39.6617 42.1399 39.6611 42.1394 39.6606 42.1389Z" fill="#3762CC"/>
<path d="M45.8994 42.621C45.3737 41.589 44.0686 41.1999 42.9854 41.7523C41.9016 42.3042 41.4498 43.5882 41.9755 44.6201C42.5012 45.652 43.8058 46.0412 44.8895 45.4893C45.9728 44.9369 46.4251 43.6529 45.8994 42.621Z" fill="#F9CFCF"/>
<path d="M6.99352 38.7253H34.2361C36.2101 38.7253 37.8104 40.3256 37.8104 42.2996V42.8643C37.8104 46.0145 35.2567 48.5681 32.1061 48.5681H7.97975C7.43504 48.5681 6.99352 48.1271 6.99352 47.5824V38.7253Z" fill="#6BDDDD"/>
<path d="M32.1061 49.6128H7.97976C7.14601 49.6128 6.46782 48.9346 6.46782 48.1009V39.2439C6.46782 38.9538 6.70347 38.7181 6.99353 38.7181H34.2361C36.4966 38.7181 38.3361 40.5571 38.3361 42.8181V43.3828C38.3361 46.8179 35.5412 49.6128 32.1061 49.6128ZM7.51924 39.7696V48.1009C7.51924 48.3545 7.72614 48.5614 7.97976 48.5614H32.1061C34.9616 48.5614 37.2847 46.2383 37.2847 43.3828V42.8181C37.2847 41.1372 35.917 39.7696 34.2361 39.7696H7.51924Z" fill="#3762CC"/>
<path d="M37.5182 49.0866H28.75C26.757 49.0866 25.1414 47.471 25.1414 45.478C25.1414 43.485 26.757 41.8699 28.75 41.8699H36.5561C37.0875 41.8699 37.5182 42.3006 37.5182 42.832V49.0866Z" fill="#6BDDDD"/>
<path d="M37.5183 49.6128H28.75C26.4706 49.6128 24.6157 47.7579 24.6157 45.478C24.6157 43.1985 26.4706 41.3441 28.75 41.3441H36.5562C37.3766 41.3441 38.044 42.0116 38.044 42.832V49.0866C38.044 49.3772 37.8088 49.6128 37.5183 49.6128ZM28.75 42.3956C27.0502 42.3956 25.6671 43.7786 25.6671 45.4785C25.6671 47.1783 27.0502 48.5614 28.75 48.5614H36.9925V42.8325C36.9925 42.5917 36.7969 42.3961 36.5562 42.3961H28.75V42.3956Z" fill="#3762CC"/>
<path d="M37.5182 44.1652L55.1476 45.3352L58.6176 44.7823C58.7521 44.7608 58.8887 44.75 59.0252 44.75H61.5588C62.5256 44.75 63.404 45.2865 63.807 46.1238L63.8999 46.3163C64.0483 46.6239 64.1253 46.9612 64.1253 47.3031V49.0871H37.5182V44.1652Z" fill="#F9CFCF"/>
<path d="M64.1252 49.6128H37.5182C37.2282 49.6128 36.9925 49.3772 36.9925 49.0871V44.1652C36.9925 44.0194 37.0531 43.8808 37.1594 43.7812C37.2651 43.6816 37.4089 43.6313 37.5531 43.6405L55.1229 44.807L58.5344 44.2633C58.6961 44.2376 58.8609 44.2248 59.0252 44.2248H61.5588C62.7237 44.2248 63.7915 44.8809 64.2808 45.8959L64.3732 46.0884C64.5544 46.4647 64.6504 46.8847 64.6504 47.3031V49.0871C64.651 49.3772 64.4153 49.6128 64.1252 49.6128ZM38.0439 48.5614H63.5995V47.3031C63.5995 47.0418 63.5395 46.7794 63.4265 46.5448L63.3336 46.3518C63.0189 45.6982 62.3222 45.2762 61.5588 45.2762H59.0252C58.9169 45.2762 58.8075 45.2849 58.7008 45.3019L55.2302 45.8548C55.1912 45.8604 55.1517 45.8625 55.1127 45.8604L38.0439 44.7274V48.5614Z" fill="#3762CC"/>
<path d="M0.882126 57.6294H62.9162C63.4969 57.6294 63.9677 57.1587 63.9677 56.578V50.138C63.9677 49.5574 63.4969 49.0866 62.9162 49.0866H0.882126V57.6294Z" fill="#A4C9FF"/>
<path d="M1.40784 64.1931H60.4191C60.7097 64.1931 60.9448 63.958 60.9448 63.6674V57.6299H0.882126V63.6674C0.882126 63.9575 1.11777 64.1931 1.40784 64.1931Z" fill="#E0EBFC"/>
<path d="M3.77252 37.9958C3.31303 37.8608 2.83661 37.792 2.35761 37.792H0.882126V49.0866H7.97976V38.942H6.99354L3.77252 37.9958Z" fill="#4671C6"/>
<path d="M20.275 21.0426C16.7387 20.3552 14.429 16.9314 15.1164 13.3946L15.7453 10.1582C16.4328 6.62197 19.8571 4.31273 23.3933 4.99965C26.9301 5.68708 29.2393 9.1114 28.5519 12.6476L27.923 15.8841C27.235 19.4203 23.8112 21.73 20.275 21.0426Z" fill="#F9CFCF"/>
<path d="M19.3801 14.3464C19.0161 14.2756 18.7784 13.9234 18.8493 13.5589L19.0628 12.4602C19.1337 12.0962 19.4859 11.8585 19.8504 11.9289C20.2144 11.9997 20.4521 12.3524 20.3818 12.7164L20.1677 13.8151C20.0973 14.1796 19.7441 14.4173 19.3801 14.3464Z" fill="#3762CC"/>
<path d="M26.2811 16.0771C25.9171 16.0062 25.6789 15.654 25.7498 15.2895L25.9633 14.1909C26.0342 13.8269 26.3869 13.5892 26.7509 13.6595C27.1149 13.7304 27.3531 14.0831 27.2822 14.4471L27.0687 15.5457C26.9978 15.9102 26.6451 16.1479 26.2811 16.0771Z" fill="#3762CC"/>
<path d="M17.5792 12.316C17.5792 13.526 16.5981 14.5066 15.3885 14.5066C14.179 14.5066 13.1984 13.526 13.1984 12.316C13.1984 11.1064 14.179 10.1258 15.3885 10.1258C16.5981 10.1258 17.5792 11.1064 17.5792 12.316Z" fill="#F9CFCF"/>
<path d="M22.9261 18.3098C22.7362 18.3098 22.538 18.2831 22.3419 18.2303C21.9568 18.1276 21.617 17.9335 21.3844 17.685C21.1251 17.4073 21.0225 17.0772 21.102 16.7799C21.1395 16.6398 21.2838 16.5566 21.4239 16.5941C21.5646 16.6321 21.6473 16.7758 21.6098 16.916C21.578 17.0346 21.636 17.1845 21.7689 17.3267C21.9327 17.5017 22.191 17.6465 22.4779 17.723C22.7649 17.8 23.0606 17.8041 23.2896 17.7343C23.476 17.6773 23.6012 17.5767 23.6331 17.4586C23.6705 17.318 23.8143 17.2348 23.955 17.2728C24.0951 17.3103 24.1783 17.4545 24.1408 17.5947C24.0612 17.8924 23.8066 18.126 23.4431 18.2369C23.284 18.2852 23.1089 18.3098 22.9261 18.3098Z" fill="#3762CC"/>
<path d="M32.3474 39.4564L30.5608 39.192L18.5192 34.3502C18.283 34.2557 18.1074 34.053 18.0474 33.8065L17.3815 31.0871L11.9847 32.5333L13.3976 37.5943C13.5377 38.0969 13.9176 38.4979 14.4126 38.6647L28.6176 43.4547C28.7079 43.485 28.7885 43.5394 28.8501 43.6128L30.0463 45.0231C30.3328 45.3614 30.7148 45.6058 31.1414 45.7254L32.7006 46.1613C33.6334 46.4216 34.6063 45.9061 34.9148 44.9887L35.5653 43.0532C35.8348 42.2528 35.5124 41.3724 34.7901 40.9355L32.3474 39.4564Z" fill="#F9CFCF"/>
<path d="M18.5048 30.7863L11.1515 32.7567L9.35052 26.0364C8.80684 24.0059 10.0118 21.9185 12.0422 21.3748C14.0727 20.8306 16.1596 22.0355 16.7038 24.066L18.5048 30.7863Z" fill="#E0EBFC"/>
<path d="M11.152 33.2824C11.0606 33.2824 10.9698 33.2588 10.8892 33.212C10.7685 33.1422 10.6802 33.0277 10.6443 32.8927L8.8433 26.1724C8.22518 23.8652 9.59901 21.4851 11.9062 20.8665C14.2129 20.2474 16.5935 21.6227 17.2116 23.9299L19.0126 30.6497C19.088 30.93 18.9212 31.2185 18.6409 31.2935L11.2876 33.2639C11.2429 33.2762 11.1972 33.2824 11.152 33.2824ZM13.0264 21.7706C12.7466 21.7706 12.4622 21.8065 12.1783 21.8825C10.4312 22.3507 9.39057 24.1532 9.85879 25.9003L11.5232 32.1129L17.8605 30.4146L16.1961 24.202C15.8044 22.7383 14.4747 21.7706 13.0264 21.7706Z" fill="#3762CC"/>
<path d="M33.1919 46.7542C32.983 46.7542 32.7704 46.726 32.5589 46.667L31.0002 46.2316C30.4699 46.0837 30.0012 45.7829 29.6454 45.3629L28.4492 43.9532L14.2442 39.1632C13.5839 38.9399 13.0782 38.4065 12.8909 37.7355L11.4785 32.6745C11.4405 32.5395 11.4585 32.3947 11.5278 32.273C11.5976 32.1508 11.7131 32.0615 11.8487 32.0256L17.2449 30.5798C17.382 30.5429 17.5273 30.5629 17.649 30.6353C17.7706 30.7072 17.8579 30.8253 17.8918 30.9623L18.5577 33.6812C18.5777 33.7639 18.6362 33.8312 18.7148 33.863L30.6994 38.6812L32.4244 38.9363C32.4937 38.9466 32.5604 38.9707 32.62 39.0066L35.0622 40.4857C36.0022 41.0546 36.414 42.1794 36.0643 43.2206L35.4134 45.1555C35.0853 46.132 34.1751 46.7542 33.1919 46.7542ZM12.6337 32.9035L13.9038 37.4531C13.9972 37.7884 14.2503 38.0553 14.5804 38.1667L28.7855 42.9567C28.9662 43.0178 29.1274 43.1271 29.2516 43.2729L30.4478 44.6832C30.667 44.942 30.9561 45.1273 31.2836 45.2192L32.8423 45.6545C33.5061 45.8394 34.1976 45.4738 34.4169 44.8203L35.0678 42.8858C35.2599 42.3139 35.0334 41.6973 34.518 41.3852L32.1667 39.961L30.4843 39.712C30.4437 39.7059 30.4037 39.6951 30.3652 39.6797L18.3225 34.8384C17.9308 34.6803 17.6367 34.342 17.536 33.9313L16.998 31.7345L12.6337 32.9035Z" fill="#3762CC"/>
<path d="M28.4615 13.1128L27.923 15.8841C27.8305 16.3579 27.6878 16.8092 27.504 17.2348C28.5031 17.2035 29.3846 16.4878 29.5833 15.4646C29.7717 14.4964 29.2901 13.5527 28.4615 13.1128Z" fill="#F9CFCF"/>
<path d="M21.522 21.6889C21.0774 21.6889 20.6266 21.6463 20.1749 21.5585C16.9153 20.925 14.5763 18.1491 14.4747 14.8737C13.2312 14.4291 12.4637 13.1302 12.722 11.7974C12.972 10.5114 14.0712 9.62065 15.3341 9.60114C16.2715 6.04591 19.834 3.77159 23.4934 4.48366C27.3089 5.22551 29.8092 8.93322 29.0678 12.7482L28.4389 15.9841C27.7854 19.3469 24.8272 21.6889 21.522 21.6889ZM15.0702 13.9496C15.0723 13.9496 15.0846 13.9516 15.0969 13.9542C15.3505 14.0019 15.5317 14.2268 15.5251 14.4845C15.4455 17.4242 17.4852 19.965 20.3756 20.5266C23.6213 21.1576 26.776 19.0296 27.407 15.7839L28.0359 12.5475C28.6669 9.30132 26.5394 6.14705 23.2932 5.51609C20.0475 4.88616 16.8933 7.01211 16.2618 10.2578C16.2074 10.5371 15.9404 10.7224 15.6601 10.6757C14.7647 10.5283 13.9274 11.1085 13.7544 11.9982C13.5793 12.8997 14.1702 13.7755 15.0707 13.9506C15.0697 13.9501 15.0692 13.9496 15.0702 13.9496Z" fill="#3762CC"/>
<path d="M27.504 17.7605C27.33 17.7605 27.1672 17.6747 27.0692 17.5305C26.968 17.3816 26.9496 17.1916 27.0214 17.0263C27.195 16.6249 27.3249 16.207 27.407 15.7834L27.9455 13.0121C27.9774 12.8489 28.0847 12.7097 28.2351 12.6384C28.385 12.566 28.5611 12.5706 28.7079 12.6481C29.7696 13.2124 30.3287 14.3839 30.0992 15.5652C29.8559 16.8174 28.7957 17.7199 27.5199 17.7605C27.5148 17.7605 27.5092 17.7605 27.504 17.7605ZM28.805 14.1L28.4389 15.9841C28.4086 16.1407 28.3727 16.2963 28.3316 16.4503C28.7049 16.2121 28.977 15.8276 29.0673 15.3645C29.1556 14.9106 29.0534 14.4589 28.805 14.1Z" fill="#3762CC"/>
<path d="M27.7797 12.0675L30.4093 12.6055C30.5849 12.6415 30.7553 12.5208 30.7897 12.3355L31.7636 7.0614C32.0855 5.31895 31.0048 3.63246 29.3502 3.29362L28.3183 3.08262C27.7905 2.97481 27.2797 3.33777 27.177 3.89326L26.14 9.50822C25.9212 10.6916 26.6559 11.8375 27.7797 12.0675Z" fill="#4671C6"/>
<path d="M22.0811 10.3497L14.084 8.71352C13.8011 8.65551 13.6163 8.36698 13.6712 8.06922L14.0788 5.86163C14.6924 2.53845 17.7486 0.368345 20.9059 1.01419L26.757 2.21142C27.6011 2.38443 28.1524 3.24488 27.9887 4.13356L27.559 6.45973C27.0666 9.12629 24.6142 10.8682 22.0811 10.3497Z" fill="#4671C6"/>
<path d="M30.473 13.1379C30.417 13.1379 30.3605 13.1322 30.3041 13.1209L27.6745 12.5824C26.5358 12.3498 25.7144 11.3662 25.5917 10.2213C24.512 10.882 23.228 11.1218 21.9758 10.8646L13.9787 9.22841C13.4181 9.11341 13.048 8.55125 13.1547 7.97368L13.5624 5.76661C13.8951 3.96512 14.889 2.42597 16.3619 1.43359C17.745 0.500755 19.3971 0.169104 21.0112 0.499728L26.8628 1.69696C27.3839 1.80374 27.8326 2.10356 28.1386 2.53943C28.2336 2.53481 28.3291 2.54867 28.423 2.56767L29.4554 2.77919C31.3858 3.17398 32.6534 5.13822 32.2806 7.15687L31.3067 12.4309C31.2646 12.6604 31.1306 12.8658 30.9402 12.9941C30.7995 13.0891 30.6378 13.1379 30.473 13.1379ZM26.2247 8.52404C26.3068 8.52404 26.39 8.54303 26.4665 8.58359C26.6718 8.68986 26.7832 8.91781 26.7411 9.14524L26.6569 9.6037C26.4901 10.5057 27.041 11.38 27.885 11.5525L30.3082 12.0485L31.2467 6.96589C31.5157 5.50632 30.6178 4.08987 29.2439 3.80905L28.2125 3.59753C28.1514 3.58572 28.0867 3.58932 28.0154 3.61191C27.7638 3.68892 27.4933 3.56776 27.3834 3.32851C27.2376 3.01124 26.9706 2.79202 26.6518 2.72682L20.8002 1.52908C19.4643 1.25647 18.0961 1.53164 16.9492 2.30481C15.7125 3.13856 14.8767 4.43539 14.5958 5.95759L14.1882 8.16466C14.1841 8.18571 14.1939 8.19906 14.1964 8.20163L22.1863 9.83472C23.5063 10.1037 24.8755 9.67403 25.8489 8.68165C25.9505 8.57794 26.0866 8.52404 26.2247 8.52404Z" fill="#3762CC"/>
<path d="M15.7458 10.1572C15.8162 9.79573 15.9168 9.44765 16.041 9.11395L14.084 8.7135C14.0024 8.69656 13.9305 8.65908 13.8684 8.60928L13.3293 10.9041L13.6543 10.9806C14.1328 10.3615 14.9265 10.0216 15.7458 10.1572Z" fill="#4671C6"/>
<path d="M13.6548 11.5064C13.6147 11.5064 13.5747 11.5012 13.5346 11.492L13.2097 11.416C13.0736 11.3842 12.956 11.3 12.8826 11.1809C12.8092 11.0623 12.7856 10.9196 12.8179 10.784L13.357 8.48916C13.3981 8.31358 13.5269 8.17137 13.6969 8.11233C13.8673 8.05381 14.0562 8.08615 14.1969 8.1991L16.1468 8.59852C16.2972 8.62932 16.4266 8.72481 16.501 8.85881C16.5755 8.99331 16.5873 9.15349 16.5334 9.29776C16.4158 9.61349 16.3239 9.9359 16.2618 10.2568C16.2074 10.5366 15.9388 10.7214 15.6601 10.6752C15.0553 10.5761 14.4464 10.8153 14.0706 11.3015C13.9695 11.4324 13.8149 11.5064 13.6548 11.5064ZM14.2503 9.28389L14.0989 9.92769C14.4762 9.72387 14.8992 9.61092 15.3341 9.60271C15.3423 9.57191 15.3505 9.54162 15.3592 9.51081L14.2503 9.28389Z" fill="#3762CC"/>
<path d="M7.97974 49.6129H0.882112C0.592046 49.6129 0.3564 49.3772 0.3564 49.0871V37.7925C0.3564 37.5019 0.592046 37.2668 0.882112 37.2668H2.3576C2.8869 37.2668 3.41313 37.3423 3.92139 37.4912L7.0695 38.4168H7.97974C8.27032 38.4168 8.50546 38.6519 8.50546 38.9425V49.0871C8.50546 49.3772 8.27032 49.6129 7.97974 49.6129ZM1.40782 48.5614H7.45403V39.4682H6.99352C6.94372 39.4682 6.89341 39.4611 6.84566 39.4467L3.62465 38.5C3.21291 38.3793 2.78679 38.3182 2.3576 38.3182H1.40782V48.5614Z" fill="#3762CC"/>
<path d="M62.9162 58.1557H0.882112C0.592046 58.1557 0.3564 57.92 0.3564 57.63V49.0871C0.3564 48.7966 0.592046 48.5614 0.882112 48.5614H62.9162C63.7864 48.5614 64.4934 49.2684 64.4934 50.1386V56.5786C64.4934 57.4477 63.7859 58.1557 62.9162 58.1557ZM1.40783 57.1043H62.9162C63.2063 57.1043 63.4419 56.8681 63.4419 56.5786V50.1386C63.4419 49.8485 63.2063 49.6129 62.9162 49.6129H1.40783V57.1043Z" fill="#3762CC"/>
<path d="M60.4191 64.7189H1.40783C0.828206 64.7189 0.3564 64.2471 0.3564 63.6674V57.63C0.3564 57.3394 0.592046 57.1042 0.882112 57.1042H60.9448C61.2354 57.1042 61.4705 57.3394 61.4705 57.63V63.6674C61.4705 64.2471 60.9987 64.7189 60.4191 64.7189ZM1.40783 58.1557V63.6674H60.4191V58.1557H1.40783Z" fill="#3762CC"/>
</g>
<defs>
<clipPath id="clip0">
<rect x="0.28125" y="0.375" width="64.3438" height="64.3438" fill="white"/>
</clipPath>
</defs>
</svg>
