<svg width="65" height="65" viewBox="0 0 65 65" fill="none" xmlns="http://www.w3.org/2000/svg">
<g clip-path="url(#clip0)">
<path d="M55.9772 63.3002L62.9851 58.8567C63.3955 58.5966 63.5174 58.0537 63.2573 57.6433L63.1703 57.5067C62.9102 57.0968 62.3673 56.9749 61.9569 57.235L53.9679 62.3004L54.3742 62.941C54.7178 63.4829 55.4353 63.6438 55.9772 63.3002Z" fill="#F9A7A7"/>
<path d="M38.0849 15.9387C40.9023 15.9387 43.1858 18.2222 43.1858 21.0396V24.033H43.4337C43.8714 24.033 44.2261 24.3877 44.2261 24.8254C44.2261 25.2631 43.8714 25.6178 43.4337 25.6178H43.0466C42.6079 27.5056 41.1264 28.9932 39.237 29.4294V30.1307C38.811 29.987 38.3556 29.905 37.881 29.905H35.3096C35.1259 29.905 34.9473 29.9237 34.7712 29.9516V28.337C33.6778 27.4014 32.9846 26.0129 32.9846 24.4611V21.0396C32.9841 18.2222 35.2681 15.9387 38.0849 15.9387Z" fill="#F9CFCF"/>
<path d="M24.958 30.3493H30.702C31.3578 30.3493 31.8901 30.8816 31.8901 31.5373V40.7656C31.1336 41.3485 30.4465 42.0164 29.8449 42.7566V32.395H24.958C24.3933 32.395 23.9354 31.9371 23.9354 31.3719C23.9359 30.8072 24.3933 30.3493 24.958 30.3493Z" fill="#F9A7A7"/>
<path d="M29.8449 43.2747C29.7867 43.2747 29.728 43.2646 29.6713 43.2449C29.4649 43.1715 29.3267 42.9757 29.3267 42.7566V32.9126H24.958C24.109 32.9126 23.4178 32.2214 23.4178 31.3718C23.4178 30.5223 24.109 29.8311 24.958 29.8311H30.702C31.6431 29.8311 32.4082 30.5967 32.4082 31.5373V40.7655C32.4082 40.9264 32.3338 41.0777 32.2063 41.1759C31.4802 41.7355 30.8209 42.3771 30.2471 43.0829C30.1464 43.2064 29.9977 43.2747 29.8449 43.2747ZM24.958 30.8674C24.6802 30.8674 24.4541 31.0936 24.4541 31.3718C24.4541 31.6501 24.6802 31.8763 24.958 31.8763H29.8449C30.1307 31.8763 30.363 32.1086 30.363 32.3945V41.4142C30.6828 41.0974 31.0198 40.7969 31.3719 40.514V31.5373C31.3719 31.1679 31.0714 30.8674 30.702 30.8674H24.958ZM31.8901 40.7655H31.8926H31.8901Z" fill="#3762CC"/>
<path d="M41.3207 24.075C41.5803 24.075 41.7913 23.8645 41.7913 23.6044V22.8201C41.7913 22.5606 41.5803 22.3496 41.3207 22.3496C41.0607 22.3496 40.8502 22.5606 40.8502 22.8201V23.6044C40.8502 23.8645 41.0607 24.075 41.3207 24.075Z" fill="#3762CC"/>
<path d="M57.3282 55.7195L60.5731 55.1665C60.8605 55.1179 61.1519 55.2257 61.3467 55.4529L61.9069 56.1081C62.048 56.2731 62.126 56.4866 62.126 56.7077C62.126 57.0235 61.9676 57.3159 61.7095 57.4778L56.6623 60.6423C56.3774 60.8209 56.0394 60.8837 55.7136 60.8179C55.3189 60.7384 54.9784 60.4789 54.7846 60.1095L54.2159 59.0267C54.0448 58.7008 54.1263 58.2925 54.4081 58.0663L57.3282 55.7195Z" fill="#A4C9FF"/>
<path d="M55.9696 61.3618C55.8502 61.3618 55.7303 61.3497 55.6109 61.3259C55.0614 61.2146 54.5933 60.8594 54.3262 60.3503L53.7574 59.2675C53.47 58.7205 53.6072 58.045 54.0838 57.6625L57.0039 55.3152C57.0727 55.2601 57.1541 55.2237 57.2412 55.2085L60.4861 54.6559C60.9561 54.577 61.4247 54.7475 61.7399 55.1159L62.3011 55.7711C62.5222 56.0297 62.6441 56.3621 62.6441 56.7077C62.6441 57.1985 62.3916 57.662 61.9848 57.917L56.9376 61.0815C56.6431 61.2662 56.3086 61.3618 55.9696 61.3618ZM57.5483 56.2073L54.733 58.4696C54.6444 58.5404 54.6191 58.6796 54.6748 58.7853L55.2435 59.8686C55.365 60.0999 55.5739 60.2608 55.8163 60.3099C56.0111 60.3498 56.2145 60.3114 56.3876 60.2036L61.4343 57.0391C61.5416 56.9718 61.6078 56.8448 61.6078 56.7077C61.6078 56.6096 61.5745 56.5159 61.5137 56.4451L60.9531 55.7899C60.8772 55.7013 60.7674 55.6593 60.6601 55.6775L57.5483 56.2073Z" fill="#3762CC"/>
<path d="M47.7842 43.0202C48.8199 43.0202 49.836 43.3314 50.722 43.9194C51.5417 44.4633 52.2227 45.2263 52.7019 46.1366V46.1371L57.8842 55.2262C57.9874 55.4078 57.949 55.6457 57.7942 55.7762L54.5057 58.549C54.3327 58.6953 54.0832 58.6502 53.9613 58.4519L49.6214 51.3807L49.1519 50.6677C48.9383 50.3434 48.5958 50.1516 48.2315 50.1516H35.1486C33.3488 50.1516 31.8901 48.5502 31.8901 46.5748V43.0202H47.7842Z" fill="#4671C6"/>
<path d="M54.2746 59.1532C54.229 59.1532 54.183 59.1496 54.138 59.1426C53.8835 59.1011 53.6578 58.9483 53.5197 58.7231L49.1798 51.6519L48.7198 50.9531C48.603 50.776 48.4208 50.6703 48.2321 50.6703H35.1487C33.0666 50.6703 31.372 48.8336 31.372 46.5758V43.0208C31.372 42.7349 31.6043 42.5026 31.8901 42.5026H47.7848C48.9227 42.5026 50.0374 42.8437 51.0084 43.4883C51.8985 44.0783 52.6428 44.9106 53.1609 45.8958L58.3351 54.9697C58.5603 55.3659 58.4718 55.883 58.1287 56.1729L54.8403 58.9457C54.6794 59.0803 54.479 59.1532 54.2746 59.1532ZM32.4083 43.5384V46.5748C32.4083 48.2613 33.6378 49.6335 35.1487 49.6335H48.2321C48.7699 49.6335 49.2759 49.9138 49.5851 50.3829L50.0541 51.0953L54.313 58.0339L57.4036 55.4281L52.2521 46.3932C51.8064 45.5461 51.181 44.8448 50.4356 44.3505C49.6342 43.8192 48.7178 43.5384 47.7848 43.5384H32.4083ZM57.4345 55.4827H57.437H57.4345Z" fill="#3762CC"/>
<path d="M35.1122 50.1516H42.1176V34.0227C42.1176 31.7488 40.2738 29.905 37.9999 29.905H35.2134C33.3777 29.905 31.8901 31.3926 31.8901 33.2278V46.9295C31.8901 48.7091 33.3327 50.1516 35.1122 50.1516Z" fill="#6BDDDD"/>
<path d="M42.1172 50.6698H35.1123C33.0499 50.6698 31.372 48.9914 31.372 46.9295V33.2278C31.372 31.1103 33.0949 29.3869 35.213 29.3869H37.9994C40.5557 29.3869 42.6353 31.4665 42.6353 34.0227V50.1516C42.6353 50.4375 42.4036 50.6698 42.1172 50.6698ZM35.2135 30.4231C33.6667 30.4231 32.4083 31.6815 32.4083 33.2283V46.9295C32.4083 48.4207 33.6216 49.6335 35.1123 49.6335H41.5996V34.0232C41.5996 32.0383 39.9849 30.4231 38 30.4231H35.2135Z" fill="#3762CC"/>
<path d="M50.8455 51.3048C50.8455 58.086 45.3484 63.5831 38.5666 63.5831C31.7854 63.5831 26.2883 58.086 26.2883 51.3048C26.2883 44.523 31.7854 39.0259 38.5666 39.0259C45.3484 39.0259 50.8455 44.523 50.8455 51.3048Z" fill="#FFEA92"/>
<path d="M38.5666 64.1012C31.5111 64.1012 25.7701 58.3603 25.7701 51.3043C25.7701 44.2483 31.5106 38.5073 38.5666 38.5073C45.6231 38.5073 51.3635 44.2483 51.3635 51.3043C51.3635 58.3603 45.6231 64.1012 38.5666 64.1012ZM38.5666 39.5441C32.0818 39.5441 26.8064 44.8195 26.8064 51.3048C26.8064 57.7895 32.0818 63.065 38.5666 63.065C45.0513 63.065 50.3273 57.789 50.3273 51.3043C50.3273 44.8195 45.0518 39.5441 38.5666 39.5441Z" fill="#3762CC"/>
<path d="M48.0873 51.3048C48.0873 56.5625 43.8249 60.8255 38.5666 60.8255C33.3089 60.8255 29.046 56.5625 29.046 51.3048C29.046 46.0465 33.3089 41.7841 38.5666 41.7841C43.8249 41.7841 48.0873 46.0465 48.0873 51.3048Z" fill="#A4C9FF"/>
<path d="M39.0974 24.1818C39.0974 25.1791 38.2888 25.9876 37.2915 25.9876C36.2942 25.9876 35.4857 25.1791 35.4857 24.1818C35.4857 23.1845 36.2942 22.3759 37.2915 22.3759C38.2888 22.3759 39.0974 23.1845 39.0974 24.1818Z" fill="#F9CFCF"/>
<path d="M39.2366 30.6488C39.1809 30.6488 39.1248 30.6397 39.0706 30.622C38.6815 30.4899 38.2808 30.4232 37.8805 30.4232H35.3091C35.172 30.4232 35.0222 30.4363 34.8517 30.4636C34.7029 30.4864 34.5491 30.4439 34.4342 30.3457C34.3189 30.2471 34.2526 30.1034 34.2526 29.9516V28.5687C33.1141 27.5066 32.4659 26.0231 32.4659 24.4611V21.0396C32.4659 17.9414 34.9863 15.4206 38.0849 15.4206C41.1831 15.4206 43.7034 17.9409 43.7034 21.0396V23.5432C44.297 23.6677 44.7438 24.1954 44.7438 24.8259C44.7438 25.5454 44.1603 26.1314 43.4418 26.1359C42.8934 27.8871 41.5014 29.2801 39.7547 29.8261V30.1312C39.7547 30.2987 39.6743 30.455 39.5386 30.5522C39.4496 30.6159 39.3438 30.6488 39.2366 30.6488ZM35.3091 29.3869H37.881C38.1613 29.3869 38.4417 29.4127 38.7184 29.4628V29.4294C38.7184 29.1885 38.8854 28.9791 39.1202 28.9244C40.8056 28.5353 42.1485 27.1914 42.5417 25.5004C42.5968 25.2656 42.8058 25.0997 43.0467 25.0997H43.4337C43.5845 25.0997 43.7075 24.9767 43.7075 24.8254C43.7075 24.6746 43.5845 24.5512 43.4337 24.5512H43.1853C42.8994 24.5512 42.6672 24.3194 42.6672 24.033V21.0396C42.6672 18.5127 40.6118 16.4569 38.0849 16.4569C35.558 16.4569 33.5022 18.5127 33.5022 21.0396V24.4611C33.5022 25.801 34.0876 27.0705 35.1082 27.9433C35.2226 28.042 35.2894 28.1857 35.2894 28.3375V29.3874C35.2959 29.3869 35.3025 29.3869 35.3091 29.3869Z" fill="#3762CC"/>
<path d="M32.0692 17.5346L32.0697 17.5351C32.98 16.1446 34.6057 15.2182 36.4607 15.2182C36.8554 15.2182 37.1751 15.5212 37.1751 15.8942V16.0363C37.1751 15.8694 37.2262 15.714 37.3138 15.585V15.5845C37.3138 15.5845 37.3386 15.5344 37.4109 15.4666C37.5071 15.3694 37.627 15.2956 37.7616 15.2546C37.9508 15.1792 38.2149 15.1165 38.5787 15.1013V15.1008H38.5808C38.9582 15.0851 39.444 15.1205 40.0664 15.2465C40.5197 15.2961 40.9523 15.4114 41.3546 15.583C41.3566 15.5835 41.3576 15.584 41.3592 15.5845V15.585C41.5874 15.6827 41.8054 15.799 42.0124 15.9311C42.1025 15.9862 42.1475 16.0207 42.148 16.0207C43.3097 16.8221 44.0697 18.1483 44.0697 19.6496V21.2743C44.0697 21.3497 44.0075 21.4104 43.9311 21.4104H37.1756V26.2604L36.361 27.923C36.3377 27.9701 36.2891 27.9999 36.236 27.9999H34.12C33.9059 27.9999 33.6955 27.9696 33.4946 27.9119C33.4885 27.9094 33.274 27.8188 33.1869 27.6791C32.981 27.3503 32.4973 26.5751 32.0566 25.8667C31.4033 24.8158 31.0319 23.615 31.0026 22.383C30.9221 19.0085 32.0692 17.5346 32.0692 17.5346Z" fill="#4671C6"/>
<path d="M36.2355 28.5186H34.1195C33.8604 28.5186 33.6019 28.4817 33.3514 28.4103C33.3322 28.4048 33.3139 28.3982 33.2952 28.3906C33.2077 28.3536 32.9097 28.215 32.7472 27.9539C32.5413 27.625 32.0571 26.8493 31.6164 26.1405C30.907 25 30.5153 23.7051 30.4845 22.3961C30.4035 19.0005 31.5258 17.397 31.6513 17.229C32.6992 15.6452 34.4949 14.7006 36.4607 14.7006C36.7456 14.7006 37.0087 14.7947 37.2176 14.9525C37.328 14.8741 37.4545 14.8094 37.5885 14.7663C37.8597 14.6611 38.1841 14.5994 38.5535 14.5837C38.5626 14.5832 38.5722 14.5832 38.5808 14.5832C39.018 14.5645 39.5503 14.6156 40.1468 14.7345C40.6331 14.7896 41.1072 14.9146 41.5555 15.1059C41.5611 15.1079 41.5656 15.1104 41.5707 15.1124C41.8181 15.2192 42.0605 15.3477 42.2912 15.495C42.3757 15.5466 42.4303 15.586 42.4501 15.6002C43.7889 16.5277 44.5879 18.0406 44.5879 19.6501V21.2749C44.5879 21.6356 44.2934 21.9291 43.9311 21.9291H37.6933V26.2604C37.6933 26.3393 37.6756 26.4172 37.6407 26.4886L36.826 28.1513C36.7137 28.3784 36.488 28.5186 36.2355 28.5186ZM33.6747 27.4241C33.8209 27.4626 33.9702 27.4823 34.12 27.4823H35.9997L36.6575 26.14V21.411C36.6575 21.1251 36.8898 20.8929 37.1757 20.8929H43.5521V19.6501C43.5521 18.3781 42.9171 17.1809 41.854 16.4482C41.8485 16.4442 41.8429 16.4402 41.8373 16.4361C41.8333 16.4331 41.8014 16.4098 41.7427 16.3739C41.5479 16.2499 41.3531 16.1467 41.1553 16.0622C41.1517 16.0607 41.1482 16.0586 41.1446 16.0571C40.7839 15.9043 40.4023 15.8046 40.0102 15.7621C39.9945 15.7601 39.9793 15.7581 39.9642 15.7545C39.4405 15.6488 38.9846 15.6032 38.602 15.6189C38.2736 15.6326 38.0682 15.6903 37.9539 15.7363C37.9402 15.7414 37.9265 15.7464 37.9124 15.751C37.8628 15.7657 37.8167 15.794 37.7798 15.8314C37.7798 15.8314 37.7631 15.8481 37.756 15.8552C37.752 15.8618 37.7479 15.8684 37.7434 15.875C37.71 15.924 37.6933 15.9787 37.6933 16.0369C37.6933 16.3233 37.4615 16.555 37.1751 16.555C36.8893 16.555 36.657 16.3233 36.657 16.0369V15.8952C36.657 15.8097 36.5675 15.7373 36.4607 15.7373C34.8365 15.7373 33.357 16.5155 32.5034 17.82C32.4937 17.8342 32.4836 17.8478 32.473 17.861C32.3784 17.9971 31.4499 19.4042 31.5202 22.3719C31.547 23.4957 31.8845 24.6103 32.4968 25.594C32.9289 26.2892 33.4035 27.0492 33.6145 27.3872C33.6287 27.3973 33.6525 27.4125 33.6747 27.4241ZM33.6256 27.4044C33.6256 27.4049 33.6256 27.4049 33.6256 27.4044V27.4044ZM37.7773 15.8158V15.8163V15.8158ZM37.7778 15.8148V15.8153V15.8148Z" fill="#3762CC"/>
<path d="M39.0974 24.1818C39.0974 25.1791 38.2888 25.9876 37.2915 25.9876C36.2942 25.9876 35.4857 25.1791 35.4857 24.1818C35.4857 23.1845 36.2942 22.3759 37.2915 22.3759C38.2888 22.3759 39.0974 23.1845 39.0974 24.1818Z" fill="#F9CFCF"/>
<path d="M55.3589 63.9995C55.2354 63.9995 55.1115 63.9859 54.988 63.9585C54.5503 63.8604 54.1769 63.5973 53.9366 63.2188L53.5303 62.5782C53.4569 62.4623 53.4321 62.3217 53.4619 62.1876C53.4923 62.0535 53.5748 61.9371 53.6901 61.8632L61.6797 56.7983C61.9954 56.5979 62.3694 56.5332 62.7332 56.6146C63.0975 56.6961 63.4082 56.9147 63.608 57.2304L63.6946 57.366C64.1074 58.0177 63.9131 58.8825 63.2624 59.2948L56.255 63.7379C55.9828 63.9105 55.6736 63.9995 55.3589 63.9995ZM55.9772 63.3003H55.9797H55.9772ZM54.6829 62.4608L54.8114 62.6637C54.904 62.8089 55.0467 62.9096 55.2147 62.9471C55.3832 62.985 55.5552 62.9547 55.6999 62.8626L62.7079 58.4195C62.8759 58.3127 62.9265 58.0891 62.8197 57.9211L62.7332 57.785C62.6816 57.703 62.6011 57.6468 62.507 57.6256C62.4144 57.6048 62.3162 57.6215 62.2348 57.6732L54.6829 62.4608Z" fill="#3762CC"/>
<path d="M38.5667 61.3436C33.0311 61.3436 28.5278 56.8398 28.5278 51.3043C28.5278 45.7688 33.0311 41.2655 38.5667 41.2655C44.1022 41.2655 48.6055 45.7688 48.6055 51.3043C48.6055 56.8398 44.1027 61.3436 38.5667 61.3436ZM38.5667 42.3017C33.6024 42.3017 29.5641 46.3405 29.5641 51.3043C29.5641 56.268 33.6024 60.3073 38.5667 60.3073C43.5309 60.3073 47.5692 56.2685 47.5692 51.3043C47.5692 46.34 43.5309 42.3017 38.5667 42.3017Z" fill="#3762CC"/>
<path d="M38.5666 56.1623C35.8884 56.1623 33.7091 53.983 33.7091 51.3048C33.7091 48.6266 35.8884 46.4473 38.5666 46.4473C41.2453 46.4473 43.4241 48.6266 43.4241 51.3048C43.4241 53.983 41.2453 56.1623 38.5666 56.1623Z" fill="#E0EBFC"/>
<path d="M49.5532 46.1822L47.467 44.9177L37.5081 39.5036C37.5081 39.5031 37.5086 39.5031 37.5086 39.5031L41.0627 36.6994C41.0809 36.6853 41.0966 36.6691 41.1113 36.6524L48.8893 42.1206L51.436 42.6711C51.527 42.6908 51.6146 42.7242 51.695 42.7708L52.2982 43.1154C52.6913 43.3405 52.8588 43.8202 52.6913 44.2412L52.0128 45.9423C51.8549 46.339 51.442 46.5723 51.0205 46.503L49.9408 46.3249C49.8036 46.3031 49.6721 46.2545 49.5532 46.1822Z" fill="#F9CFCF"/>
<path d="M51.1642 47.0332C51.0889 47.0332 51.0124 47.0271 50.9365 47.0145L49.8563 46.8369C49.6523 46.803 49.4601 46.7316 49.284 46.6249L47.1983 45.3609L37.2607 39.959C37.1074 39.8755 37.0072 39.7207 36.992 39.5471C36.9773 39.3736 37.0512 39.2041 37.1878 39.0963L40.7424 36.2926C40.9175 36.0983 41.1958 36.0781 41.4098 36.2288L49.1013 41.6363L51.5458 42.1651C51.6884 42.196 51.8251 42.2486 51.9521 42.3209L52.5552 42.666C53.1685 43.0172 53.4341 43.7772 53.172 44.4334L52.494 46.1351C52.2764 46.6805 51.739 47.0332 51.1642 47.0332ZM38.4462 39.4237L47.7144 44.4623L49.8219 45.7389L49.8224 45.7394C49.8846 45.7774 49.9529 45.8021 50.0253 45.8143L51.105 45.9919C51.2882 46.0228 51.4633 45.9226 51.5316 45.751L52.2096 44.0499C52.2815 43.8698 52.2086 43.6618 52.0406 43.5657L51.438 43.2206C51.4031 43.2009 51.3656 43.1862 51.3262 43.1776L48.78 42.6271C48.7122 42.6124 48.648 42.5841 48.5913 42.5446L41.135 37.3025L38.4462 39.4237Z" fill="#3762CC"/>
<path d="M37.5091 39.5031L41.0632 36.7C41.2347 36.5644 41.2641 36.3154 41.129 36.1434L37.1848 31.1432C36.2755 29.99 34.6032 29.7927 33.4496 30.7025C32.2964 31.6117 32.0991 33.284 33.0089 34.4377L36.953 39.4379C37.0881 39.6094 37.3371 39.6387 37.5091 39.5031Z" fill="#6BDDDD"/>
<path d="M37.2652 40.1068C37.2293 40.1068 37.1929 40.1047 37.1564 40.1002C36.9136 40.0718 36.697 39.9504 36.5457 39.7581L32.602 34.7585C31.5167 33.3822 31.7535 31.3805 33.1288 30.2951C34.504 29.2103 36.5062 29.4466 37.5916 30.8224L41.5358 35.8226C41.848 36.2187 41.7796 36.7946 41.384 37.1068L37.8299 39.9099C37.667 40.0385 37.4696 40.1068 37.2652 40.1068ZM37.5086 39.5031H37.5111H37.5086ZM35.0945 30.6498C34.63 30.6498 34.1625 30.8001 33.7704 31.1093C32.8439 31.8399 32.6845 33.1894 33.4157 34.1164L37.2839 39.0209L40.6467 36.3685L36.778 31.464C36.356 30.9291 35.728 30.6498 35.0945 30.6498Z" fill="#3762CC"/>
<path d="M53.9679 62.3004L55.5881 61.2733L50.641 53.5271C50.4852 54.3767 50.2438 55.1959 49.9235 55.9751L54.2487 62.7477L54.2507 62.7467L53.9679 62.3004Z" fill="#E0EBFC"/>
<path d="M54.2497 63.2648C54.0782 63.2648 53.9107 63.1808 53.8126 63.0265L49.4874 56.2533C49.3963 56.1112 49.3806 55.9336 49.4449 55.7772C49.753 55.0283 49.9842 54.24 50.1315 53.4335C50.1694 53.224 50.3324 53.0595 50.5413 53.018C50.7498 52.976 50.9633 53.0686 51.0777 53.2478L56.0252 60.9939C56.0991 61.1103 56.1239 61.251 56.0941 61.3856C56.0642 61.5202 55.9822 61.6371 55.8659 61.7109L54.6834 62.4603L54.6889 62.4689C54.7628 62.5853 54.7871 62.7265 54.7567 62.861C54.7259 62.9961 54.6434 63.1125 54.526 63.1854C54.44 63.2395 54.3444 63.2648 54.2497 63.2648ZM50.5034 55.9199L54.1232 61.5885L54.8721 61.1139L50.8652 54.8406C50.7604 55.2064 50.6395 55.5672 50.5034 55.9199Z" fill="#3762CC"/>
<path d="M4.87591 57.0068L3.20918 58.8238C3.14442 58.8946 3.09027 58.9746 3.04929 59.0616L2.92532 59.3247C2.70218 59.7988 2.90103 60.366 3.37009 60.5917L9.86142 63.7192C10.3421 63.951 10.9134 63.8705 11.3131 63.5143L11.4892 63.1409C11.6774 62.7406 11.642 62.2691 11.3961 61.9022L9.65801 59.3105L4.87591 57.0068Z" fill="#E0EBFC"/>
<path d="M10.4347 64.3689C10.164 64.3689 9.89176 64.3087 9.63674 64.1857L3.14541 61.0582C2.42235 60.7101 2.1137 59.8332 2.45676 59.1036L2.58073 58.8405C2.64448 58.7054 2.72747 58.5819 2.82765 58.4731L4.49438 56.6561C4.6482 56.4881 4.89461 56.4406 5.10106 56.5397L9.88265 58.8435C9.96563 58.8835 10.037 58.9452 10.0881 59.0221L11.8267 61.6133C12.1728 62.1294 12.2228 62.7993 11.9577 63.362L11.7821 63.7344C11.7528 63.7981 11.7103 63.8543 11.6582 63.9014C11.3126 64.209 10.8764 64.3689 10.4347 64.3689ZM4.99733 57.6408L3.59068 59.1739C3.56133 59.2063 3.53705 59.2422 3.51833 59.2822L3.39436 59.5453C3.29215 59.7624 3.38221 60.0225 3.59473 60.1252L10.0866 63.2522C10.3507 63.3797 10.6588 63.3519 10.8956 63.1854L11.0201 62.9208C11.1309 62.6855 11.1102 62.4062 10.9655 62.1911L9.30582 59.7163L4.99733 57.6408Z" fill="#3762CC"/>
<path d="M11.7533 34.9163L11.7933 35.3661V40.1958C11.7933 40.3516 11.7624 40.506 11.7017 40.6497L4.86426 56.9121L9.89733 59.3581L18.4804 43.3471C18.6393 43.0511 18.7228 42.7192 18.7228 42.3817V34.9163H11.7533Z" fill="#A4C9FF"/>
<path d="M9.89733 59.8762C9.82092 59.8762 9.74401 59.859 9.67115 59.8236L4.63758 57.3777C4.39015 57.2577 4.27984 56.9648 4.38661 56.7108L11.224 40.4488C11.2579 40.3689 11.2751 40.2839 11.2751 40.1958V35.3889L11.2372 34.9624C11.224 34.8177 11.2731 34.674 11.3713 34.5667C11.4694 34.4594 11.6081 34.3982 11.7533 34.3982H18.7228C19.0087 34.3982 19.2409 34.6304 19.2409 34.9163V42.3817C19.2409 42.8032 19.1357 43.2216 18.9373 43.592L10.3542 59.6025C10.2611 59.7761 10.0825 59.8762 9.89733 59.8762ZM5.53217 56.6602L9.67621 58.674L18.024 43.1022C18.1419 42.8816 18.2046 42.6327 18.2046 42.3817V35.4345H12.3114V40.1953C12.3114 40.422 12.2674 40.6426 12.1793 40.8506L5.53217 56.6602Z" fill="#3762CC"/>
<path d="M15.6807 1.50232C18.4981 1.50232 20.7816 3.78635 20.7816 6.60319V9.59713H21.0301C21.4672 9.59713 21.8219 9.95182 21.8219 10.389C21.8219 10.8267 21.4672 11.1814 21.0301 11.1814H20.643C20.2038 13.0697 18.7222 14.5568 16.8329 14.9935V15.6948C16.4068 15.5506 15.9515 15.4691 15.4768 15.4691H12.9054C12.7217 15.4691 12.5431 15.4878 12.367 15.5152V13.9011C11.2741 12.9655 10.5804 11.5766 10.5804 10.0247V6.6037C10.5799 3.78635 12.8639 1.50232 15.6807 1.50232Z" fill="#F9CFCF"/>
<path d="M16.8329 16.2129C16.7772 16.2129 16.7206 16.2038 16.6664 16.1856C16.2773 16.0541 15.8766 15.9873 15.4764 15.9873H12.9054C12.7673 15.9873 12.6175 16.0004 12.4485 16.0272C12.2977 16.051 12.1459 16.008 12.0306 15.9098C11.9152 15.8112 11.8489 15.667 11.8489 15.5157V14.1328C10.7099 13.0702 10.0618 11.5867 10.0618 10.0247V6.6032C10.0618 3.50503 12.5826 0.984192 15.6808 0.984192C18.7789 0.984192 21.2998 3.50452 21.2998 6.6032V9.10683C21.8933 9.23181 22.3401 9.75955 22.3401 10.3895C22.3401 11.109 21.7567 11.6955 21.0377 11.7C20.4897 13.4507 19.0977 14.8437 17.351 15.3897V15.6953C17.351 15.8623 17.2701 16.0186 17.135 16.1163C17.0454 16.18 16.9397 16.2129 16.8329 16.2129ZM12.9054 14.951H15.4769C15.7572 14.951 16.0375 14.9763 16.3148 15.0269V14.9935C16.3148 14.7521 16.4812 14.5432 16.716 14.4885C18.402 14.0994 19.7449 12.755 20.138 11.0645C20.1927 10.8297 20.4016 10.6638 20.6425 10.6638H21.0301C21.1809 10.6638 21.3038 10.5403 21.3038 10.3895C21.3038 10.2382 21.1809 10.1153 21.0301 10.1153H20.7816C20.4958 10.1153 20.2635 9.88301 20.2635 9.59713V6.6032C20.2635 4.07629 18.2077 2.02046 15.6808 2.02046C13.1544 2.02046 11.0985 4.07629 11.0985 6.6032V10.0247C11.0985 11.3645 11.684 12.6341 12.704 13.5074C12.8189 13.6056 12.8852 13.7498 12.8852 13.9011V14.9515C12.8923 14.951 12.8983 14.951 12.9054 14.951Z" fill="#3762CC"/>
<path d="M19.3871 17.8787C18.7602 16.4624 17.2989 15.4691 15.5957 15.4691H12.8092C10.974 15.4691 9.4859 16.8981 9.4859 18.6609V34.9163H19.7134L20.3636 25.257C20.3702 25.1563 20.3722 25.0556 20.3773 24.9549H20.3814C20.6794 20.484 19.3871 17.8787 19.3871 17.8787Z" fill="#A4C9FF"/>
<path d="M19.7134 35.4345H9.48591C9.20002 35.4345 8.96777 35.2022 8.96777 34.9163V18.6609C8.96777 16.6152 10.6912 14.951 12.8092 14.951H15.5957C17.4497 14.951 19.1189 16.0106 19.8531 17.6525C19.9305 17.8104 21.199 20.4744 20.898 24.9898C20.897 25.0065 20.8949 25.0232 20.8924 25.0394L20.8904 25.0931C20.8873 25.1599 20.8848 25.2256 20.8808 25.2919L20.2301 34.9512C20.2124 35.2235 19.9862 35.4345 19.7134 35.4345ZM10.004 34.3982H19.2287L19.8465 25.2221C19.8506 25.1659 19.8521 25.1103 19.8546 25.0546L19.8597 24.9286C19.8607 24.9048 19.8637 24.8816 19.8683 24.8588C20.138 20.6146 18.9347 18.1337 18.9226 18.1089C18.9196 18.1023 18.9165 18.0952 18.913 18.0882C18.3483 16.812 17.0464 15.9873 15.5957 15.9873H12.8092C11.2629 15.9873 10.0045 17.187 10.0045 18.6609V34.3982H10.004Z" fill="#3762CC"/>
<path d="M18.9165 9.63864C19.1766 9.63864 19.3871 9.42815 19.3871 9.16807V8.38379C19.3871 8.12422 19.1766 7.91373 18.9165 7.91373C18.657 7.91373 18.446 8.12422 18.446 8.38379V9.16807C18.446 9.42815 18.657 9.63864 18.9165 9.63864Z" fill="#3762CC"/>
<path d="M16.6932 9.74592C16.6932 10.7432 15.8847 11.5518 14.8874 11.5518C13.8901 11.5518 13.0815 10.7432 13.0815 9.74592C13.0815 8.74811 13.8901 7.93954 14.8874 7.93954C15.8847 7.93954 16.6932 8.74811 16.6932 9.74592Z" fill="#F9CFCF"/>
<path d="M9.4859 24.668V29.737C9.4859 30.0472 9.57951 30.3508 9.75458 30.6078L10.1523 31.1907C10.422 31.5864 10.8602 31.8349 11.3383 31.8632L21.3058 32.4522C21.5421 32.4663 21.7713 32.5387 21.9727 32.6632L23.0181 33.3088C23.2058 33.4252 23.4229 33.4864 23.644 33.4864H26.0464C26.5731 33.4864 27.0002 33.0593 27.0002 32.5331V30.0305C27.0002 29.5043 26.5731 29.0772 26.0464 29.0772H22.8035C22.6244 29.0772 22.4478 29.1177 22.2864 29.1951L22.0734 29.2978C21.8082 29.4258 21.5102 29.4689 21.2198 29.4208L14.858 28.3734C14.6141 28.3334 14.4416 28.1138 14.4598 27.8679L14.6961 24.668H9.4859Z" fill="#F9CFCF"/>
<path d="M18.4212 0.893616H15.8609C15.323 0.893616 14.8874 1.32927 14.8874 1.86714V1.82717C14.8874 1.31106 14.4694 0.893616 13.9538 0.893616H13.4529C10.5359 0.893616 8.17139 3.2581 8.17139 6.17513V8.24411C8.17139 11.1611 10.5359 13.5256 13.4529 13.5256H14.8879V6.91184H21.3038C21.5902 6.91184 21.8219 6.6801 21.8219 6.39371V4.29437C21.8219 2.41563 20.2994 0.893616 18.4212 0.893616Z" fill="#4671C6"/>
<path d="M1.89514 16.8621H2.83982C5.3222 16.8621 7.33452 14.8498 7.33452 12.3679V6.66238H5.11374C3.3362 6.66238 1.89514 8.10344 1.89514 9.88098V16.8621Z" fill="#4671C6"/>
<path d="M2.83977 17.3802H1.89509C1.6092 17.3802 1.37695 17.148 1.37695 16.8621V9.88098C1.37695 7.8206 3.05329 6.14426 5.11368 6.14426H7.33446C7.62035 6.14426 7.8526 6.37651 7.8526 6.66239V12.3679C7.8526 15.1316 5.60398 17.3802 2.83977 17.3802ZM2.41322 16.344H2.83977C5.03272 16.344 6.81633 14.5604 6.81633 12.3679V7.18052H5.11368C3.62455 7.18052 2.41322 8.39186 2.41322 9.88098V16.344Z" fill="#3762CC"/>
<path d="M7.253 8.70962H7.41593C7.83337 8.70962 8.17137 8.37112 8.17137 7.95418V6.39776C8.17137 5.98082 7.83337 5.64282 7.41593 5.64282H7.253C6.83607 5.64282 6.49756 5.98082 6.49756 6.39776V7.95418C6.49756 8.37112 6.83607 8.70962 7.253 8.70962Z" fill="#F9A7A7"/>
<path d="M7.41593 9.22775H7.253C6.55069 9.22775 5.97943 8.65649 5.97943 7.95418V6.39776C5.97943 5.69596 6.55069 5.12469 7.253 5.12469H7.41593C8.11824 5.12469 8.68951 5.69596 8.68951 6.39776V7.95418C8.68951 8.65649 8.11824 9.22775 7.41593 9.22775ZM7.253 6.16146C7.12195 6.16146 7.0157 6.26722 7.0157 6.39827V7.95469C7.0157 8.08523 7.12195 8.19149 7.253 8.19149H7.41593C7.54698 8.19149 7.65324 8.08523 7.65324 7.95469V6.39827C7.65324 6.26772 7.54698 6.16146 7.41593 6.16146H7.253Z" fill="#3762CC"/>
<path d="M14.8874 14.0438H13.4529C10.2551 14.0438 7.65326 11.442 7.65326 8.24363V6.17464C7.65326 2.97679 10.2551 0.375 13.4529 0.375H13.9538C14.3151 0.375 14.6455 0.507569 14.9 0.726662C15.1596 0.507063 15.4951 0.375 15.8609 0.375H18.4212C20.5823 0.375 22.3401 2.1328 22.3401 4.29388V6.39323C22.3401 6.96449 21.8756 7.42949 21.3038 7.42949H15.4055V13.5251C15.4055 13.8115 15.1738 14.0438 14.8874 14.0438ZM13.4529 1.41126C10.8263 1.41126 8.68952 3.54805 8.68952 6.17464V8.24363C8.68952 10.8707 10.8263 13.0075 13.4529 13.0075H14.3692V6.91136C14.3692 6.62548 14.6015 6.39323 14.8874 6.39323H21.3038V4.29388C21.3038 2.70457 20.011 1.41177 18.4212 1.41177H15.8609C15.6094 1.41177 15.4055 1.61568 15.4055 1.86716C15.4055 2.15304 15.1733 2.38529 14.8874 2.38529C14.6015 2.38529 14.3692 2.15304 14.3692 1.86716V1.82719C14.3692 1.59797 14.1825 1.41177 13.9538 1.41177H13.4529V1.41126Z" fill="#3762CC"/>
<path d="M16.6932 9.74592C16.6932 10.7432 15.8847 11.5518 14.8874 11.5518C13.8901 11.5518 13.0815 10.7432 13.0815 9.74592C13.0815 8.74811 13.8901 7.93954 14.8874 7.93954C15.8847 7.93954 16.6932 8.74811 16.6932 9.74592Z" fill="#F9CFCF"/>
<path d="M26.0469 34.0045H23.6445C23.3267 34.0045 23.016 33.9165 22.7458 33.749L21.701 33.1034C21.573 33.0244 21.4257 32.9779 21.2749 32.9693L11.3075 32.3798C10.674 32.3423 10.0815 32.0069 9.72372 31.4822L9.32652 30.8993C9.09225 30.5547 8.96777 30.1529 8.96777 29.7365V24.6675C8.96777 24.3816 9.20002 24.1494 9.48591 24.1494H14.6956C14.8398 24.1494 14.9774 24.2096 15.0751 24.3148C15.1732 24.4206 15.2228 24.5623 15.2122 24.706L14.9789 27.8679L21.3043 28.9097C21.49 28.9406 21.6787 28.9133 21.8477 28.8313L22.0612 28.7286C22.2915 28.6178 22.548 28.5591 22.8035 28.5591H26.0469C26.8585 28.5591 27.5183 29.2194 27.5183 30.0305V32.5331C27.5183 33.3447 26.8585 34.0045 26.0469 34.0045ZM10.004 25.1856V29.7365C10.004 29.944 10.0658 30.1438 10.1827 30.3154L10.5799 30.8983C10.758 31.1593 11.053 31.3268 11.3687 31.3456L21.3362 31.9345C21.6575 31.9537 21.9722 32.0529 22.2454 32.2219L23.2903 32.8676C23.3965 32.9333 23.519 32.9677 23.644 32.9677H26.0464C26.2868 32.9677 26.4821 32.7729 26.4821 32.5326V30.03C26.4821 29.7901 26.2868 29.5948 26.0464 29.5948H22.803C22.7028 29.5948 22.6016 29.6181 22.5106 29.6616L22.2975 29.7643C21.9353 29.9394 21.5325 29.9966 21.1353 29.9318L14.773 28.8844C14.2614 28.7999 13.9042 28.3466 13.9427 27.8294L14.1375 25.1856H10.004Z" fill="#3762CC"/>
<path d="M14.9886 24.668H9.21928C9.11757 24.668 9.0351 24.5856 9.0351 24.4839V19.931C9.0351 18.2359 10.4094 16.8622 12.1039 16.8622C13.799 16.8622 15.1727 18.2359 15.1727 19.931V24.4839C15.1727 24.5851 15.0898 24.668 14.9886 24.668Z" fill="#A4C9FF"/>
<path d="M14.9886 25.1857H9.21928C8.8322 25.1857 8.51697 24.8709 8.51697 24.4834V19.931C8.51697 17.9531 10.126 16.344 12.1039 16.344C14.0818 16.344 15.6909 17.9531 15.6909 19.931V24.4834C15.6909 24.8709 15.3756 25.1857 14.9886 25.1857ZM9.55323 24.1494H14.6541V19.931C14.6541 18.5243 13.5101 17.3803 12.1039 17.3803C10.6973 17.3803 9.55323 18.5248 9.55323 19.931V24.1494Z" fill="#3762CC"/>
<path d="M14.5813 59.6647L13.7332 62.4391C13.7039 62.5347 13.6892 62.6339 13.6892 62.7336V63.2142C13.6892 63.7587 14.1198 64.2004 14.6516 64.2004H23.0459C23.6587 64.2004 24.2128 63.826 24.4541 63.2486V62.7669C24.4541 62.2503 24.1864 61.7717 23.7513 61.5106L20.6774 59.6647H14.5813Z" fill="#E0EBFC"/>
<path d="M23.0459 64.7185H14.6516C13.8354 64.7185 13.1705 64.044 13.1705 63.2147V62.734C13.1705 62.5827 13.1933 62.433 13.2373 62.2883L14.0854 59.5129C14.1522 59.2953 14.3535 59.1466 14.5812 59.1466H20.6769C20.771 59.1466 20.8631 59.1719 20.9435 59.2205L24.0174 61.0663C24.6059 61.4195 24.9717 62.0712 24.9717 62.7669V63.2486C24.9717 63.3174 24.9581 63.3852 24.9317 63.4485C24.6094 64.2201 23.8697 64.7185 23.0459 64.7185ZM14.9648 60.1828L14.2286 62.5908C14.2144 62.6369 14.2068 62.6855 14.2068 62.7335V63.2142C14.2068 63.4723 14.4067 63.6823 14.6516 63.6823H23.0459C23.4193 63.6823 23.7594 63.4703 23.936 63.1343V62.7669C23.936 62.433 23.7629 62.1218 23.4846 61.9548L20.5337 60.1828H14.9648Z" fill="#3762CC"/>
<path d="M23.0459 64.7185H14.6516C13.8354 64.7185 13.1705 64.044 13.1705 63.2147V62.734C13.1705 62.5827 13.1933 62.433 13.2373 62.2883L14.0854 59.5129C14.1522 59.2953 14.3535 59.1466 14.5812 59.1466H20.6769C20.771 59.1466 20.8631 59.1719 20.9435 59.2205L24.0174 61.0663C24.6059 61.4195 24.9717 62.0712 24.9717 62.7669V63.2486C24.9717 63.3174 24.9581 63.3852 24.9317 63.4485C24.6094 64.2201 23.8697 64.7185 23.0459 64.7185ZM14.9648 60.1828L14.2286 62.5908C14.2144 62.6369 14.2068 62.6855 14.2068 62.7335V63.2142C14.2068 63.4723 14.4067 63.6823 14.6516 63.6823H23.0459C23.4193 63.6823 23.7594 63.4703 23.936 63.1343V62.7669C23.936 62.433 23.7629 62.1218 23.4846 61.9548L20.5337 60.1828H14.9648Z" fill="#3762CC"/>
<path d="M19.3755 37.0273L19.5136 35.7578L19.6872 34.9163H10.6654L10.5272 35.3064C9.98634 36.8285 9.87401 38.4734 10.2029 40.0531L10.8369 43.0987L14.2007 59.6222L14.5913 59.6647H20.056L20.0459 59.603L19.3755 37.0273Z" fill="#A4C9FF"/>
<path d="M20.0556 60.1829H14.5909C14.5722 60.1829 14.5534 60.1819 14.5352 60.1798L14.1441 60.1373C13.9199 60.113 13.7373 59.9461 13.6922 59.7255L10.3289 43.2019L9.69544 40.1584C9.34681 38.4841 9.46572 36.746 10.0385 35.1324L10.1771 34.7433C10.2505 34.5363 10.4458 34.3982 10.6654 34.3982H19.6867C19.843 34.3982 19.9903 34.4685 20.0884 34.5895C20.1871 34.7099 20.2256 34.8688 20.1942 35.0211L20.0257 35.8387L19.8941 37.0481L20.5626 59.5544L20.5676 59.5828C20.5914 59.7325 20.5489 59.8853 20.4502 60.0007C20.3516 60.1161 20.2074 60.1829 20.0556 60.1829ZM14.6324 59.1466H19.5141L18.8579 37.043C18.8569 37.0192 18.8579 36.9954 18.8609 36.9717L18.9985 35.7021C19.0006 35.6859 19.0031 35.6697 19.0061 35.6536L19.0512 35.435H11.0313L11.0151 35.48C10.5055 36.9145 10.4003 38.4593 10.7094 39.9479L11.3434 42.9934L14.6324 59.1466Z" fill="#3762CC"/>
</g>
<defs>
<clipPath id="clip0">
<rect x="0.375" y="0.375" width="64.3438" height="64.3438" fill="white"/>
</clipPath>
</defs>
</svg>
